<?xml version="1.0" encoding="UTF-8" standalone="no"?>
<!-- Created with Inkscape (http://www.inkscape.org/) -->

<svg
   width="793.70081"
   height="1122.5197"
   viewBox="0 0 209.99998 296.99996"
   version="1.1"
   id="svg5"
   xml:space="preserve"
   inkscape:version="1.2.2 (b0a8486541, 2022-12-01)"
   sodipodi:docname="ALL-HOOPS-px.svg"
   inkscape:export-filename="hoop-medium.png"
   inkscape:export-xdpi="96"
   inkscape:export-ydpi="96"
   xmlns:inkscape="http://www.inkscape.org/namespaces/inkscape"
   xmlns:sodipodi="http://sodipodi.sourceforge.net/DTD/sodipodi-0.dtd"
   xmlns="http://www.w3.org/2000/svg"
   xmlns:svg="http://www.w3.org/2000/svg"><sodipodi:namedview
     id="namedview7"
     pagecolor="#f5f5cd"
     bordercolor="#000000"
     borderopacity="0.25"
     inkscape:showpageshadow="2"
     inkscape:pageopacity="0"
     inkscape:pagecheckerboard="0"
     inkscape:deskcolor="#d1d1d1"
     inkscape:document-units="px"
     showgrid="true"
     showguides="true"
     inkscape:zoom="4.2179991"
     inkscape:cx="-33.072553"
     inkscape:cy="39.118074"
     inkscape:window-width="1600"
     inkscape:window-height="833"
     inkscape:window-x="3520"
     inkscape:window-y="100"
     inkscape:window-maximized="1"
     inkscape:current-layer="layer4"
     guidecolor="#e58a00"
     guideopacity="1"
     inkscape:lockguides="false"><inkscape:grid
       type="xygrid"
       id="grid1299"
       originx="0"
       originy="0"
       units="px"
       spacingx="0.26458333"
       spacingy="0.26458333" /></sodipodi:namedview><defs
     id="defs2" /><g
     inkscape:label="Layer 1"
     inkscape:groupmode="layer"
     id="layer1"
     style="display:inline"
     sodipodi:insensitive="true" /><g
     inkscape:groupmode="layer"
     id="layer4"
     inkscape:label="large"
     style="display:inline"><path
       style="opacity:1;fill:#ffffff;stroke-width:0.0510355"
       d="m -4.435062,22.647164 c 0.012914,-0.01119 0.1168523,-1.118339 0.2309805,-2.460358 0.3816587,-4.487969 0.4489734,-5.277442 0.6156291,-7.220414 l 0.165756,-1.932441 0.1108728,-0.785125 c 0.060981,-0.4318179 0.1528291,-1.035387 0.2041076,-1.3412648 l 0.093235,-0.5561374 0.1321511,-0.4254273 c 0.072685,-0.2339856 0.1782545,-0.609136 0.234608,-0.833668 L -2.545265,6.6840878 -2.2993799,6.0684301 C -2.1641381,5.729817 -1.9305668,5.1622739 -1.7803288,4.8072227 L -1.5071634,4.1616767 -1.0291193,3.3579472 -0.55108042,2.5542196 0.23147436,1.5425929 1.0140292,0.5309682 1.794565,-0.2356145 2.5751008,-1.0021991 3.4671501,-1.6859509 4.3591941,-2.3697007 5.2831376,-2.9047668 6.207086,-3.439831 l 1.1784867,-0.4877058 1.1784876,-0.4877057 1.0173354,-0.2724981 1.0173353,-0.2725 1.011165,-0.1866021 c 1.07989,-0.1992865 2.917156,-0.4764641 3.595078,-0.5423689 0.226719,-0.022042 0.748478,-0.073439 1.159465,-0.1142181 1.76538,-0.1751617 4.047696,-0.2540114 6.129682,-0.2117723 l 1.175131,0.023843 2.08488,0.1805472 2.08488,0.1805453 1.214481,0.1883188 c 0.667964,0.1035764 1.616481,0.2651008 2.107815,0.3589438 l 0.893333,0.170625 1.068313,0.3008124 1.068313,0.3008086 1.020367,0.4312101 1.020365,0.4312101 0.635668,0.3769945 c 0.349619,0.2073493 0.691685,0.3985383 0.760148,0.4248698 0.187362,0.072056 0.722086,0.4503198 1.55816,1.1022369 l 0.751018,0.58559758 0.774688,0.7656279 0.774686,0.76562596 0.755137,0.96922746 0.755138,0.9692275 0.211882,0.3735841 c 0.490241,0.864382 0.577857,1.0123963 0.745975,1.2602199 0.09713,0.1431786 0.174706,0.2869031 0.172393,0.3193877 -0.0067,0.09337 0.226577,0.665514 0.468568,1.1495008 0.121904,0.2438114 0.26202,0.5782292 0.311363,0.7431504 0.08468,0.2830202 0.133841,0.4537629 0.338482,1.1755777 0.04696,0.165631 0.119802,0.4149012 0.161876,0.5539385 0.04207,0.1390353 0.117898,0.5128876 0.168503,0.8307785 0.281137,1.7661055 0.291719,1.8572615 0.471262,4.0590115 0.03809,0.467077 0.08721,1.057749 0.109156,1.312604 0.02195,0.254854 0.05864,0.683456 0.08152,0.952447 0.02289,0.268992 0.06103,0.709212 0.08477,0.978265 0.02374,0.269055 0.07356,0.882801 0.11073,1.363885 0.03716,0.481082 0.08587,1.071721 0.108241,1.312535 0.02237,0.240814 0.06092,0.681063 0.08567,0.97833 0.02475,0.297267 0.06271,0.737474 0.08437,0.978236 0.02165,0.240761 0.04635,0.541865 0.0549,0.669117 0.0085,0.127252 0.02771,0.370394 0.04258,0.540315 0.07344,0.838955 0.135476,1.737876 0.275038,3.985206 0.0644,1.036945 0.156745,3.301807 0.183088,4.490274 0.0075,0.338242 0.02061,0.822715 0.02914,1.076603 0.0388,1.155022 0.03231,4.111719 -0.0136,6.190244 l -0.03385,1.532581 -0.152782,2.931132 -0.152781,2.93113 -0.594173,6.736954 -0.594174,6.736952 -0.140439,0.885336 -0.140442,0.885333 -0.300589,1.052915 -0.30059,1.052913 -0.221895,0.521313 c -0.122042,0.286722 -0.310052,0.733718 -0.417801,0.993327 l -0.195905,0.472013 -0.625092,1.063888 -0.625094,1.063886 -0.45361,0.572715 c -0.249483,0.314994 -0.552214,0.692266 -0.672734,0.838388 -0.300924,0.364846 -1.921004,1.96681 -2.077492,2.054264 -0.06984,0.03902 -0.313592,0.217224 -0.541677,0.396004 -0.228085,0.178777 -0.527113,0.412538 -0.664501,0.519473 -0.137392,0.106933 -0.574271,0.384137 -0.970846,0.615999 -0.396573,0.231862 -0.818626,0.4788 -0.937894,0.548757 -0.280779,0.164686 -2.367987,1.022743 -2.814117,1.156893 -0.188869,0.05679 -0.472417,0.136421 -0.630109,0.176948 -0.15769,0.04053 -0.498004,0.130289 -0.756254,0.199469 -0.258247,0.06918 -0.784598,0.184512 -1.169671,0.2563 -0.385073,0.07179 -0.828531,0.155008 -0.985462,0.184933 -0.156929,0.02992 -0.564408,0.09309 -0.905507,0.140372 -0.3411,0.04728 -0.82955,0.11576 -1.085442,0.152175 -0.255893,0.03641 -0.662433,0.08648 -0.903418,0.111265 -0.240987,0.02478 -0.623781,0.06485 -0.850655,0.08904 -1.669247,0.177976 -4.359661,0.276553 -6.409942,0.234858 l -1.172314,-0.02384 -2.062411,-0.176402 -2.06241,-0.176404 -1.012252,-0.154373 c -0.556738,-0.0849 -1.522182,-0.249999 -2.145431,-0.366885 L 10.369616,73.801379 9.390545,73.529901 8.4114742,73.258429 7.3437587,72.818498 6.2760424,72.37857 5.9044871,72.170258 C 5.7001316,72.055683 5.20173,71.764621 4.7969281,71.523445 L 4.0609249,71.084941 3.6744437,70.766809 C 3.461879,70.591835 3.1022754,70.309106 2.8753245,70.138521 2.4383244,69.810054 2.3422075,69.723765 1.9314301,69.291108 1.7894674,69.141587 1.622951,68.979958 1.5613943,68.931936 1.3712307,68.783592 0.73699644,68.069393 0.37196254,67.592533 0.24332574,67.424491 0.05353229,67.181829 -0.04980059,67.053289 -0.41167224,66.603137 -0.59815029,66.3191 -0.98025961,65.63607 -1.0507242,65.510116 -1.2270699,65.216375 -1.3721421,64.983316 c -0.1450722,-0.233062 -0.2621595,-0.453397 -0.2601951,-0.489643 0.00195,-0.03624 -0.068674,-0.220749 -0.1569707,-0.410015 -0.3680381,-0.788865 -0.5265706,-1.153283 -0.6203942,-1.426082 -0.2807742,-0.816337 -0.7226365,-2.4684 -0.7744096,-2.895409 -0.045864,-0.378279 -0.076963,-0.592955 -0.1693845,-1.169365 -0.039331,-0.245296 -0.088557,-0.674798 -0.1093891,-0.95445 -0.020833,-0.279652 -0.058602,-0.740199 -0.08393,-1.023435 -0.025333,-0.283241 -0.057062,-0.64241 -0.070509,-0.798157 -0.061879,-0.71659 -0.1160964,-1.350801 -0.151839,-1.776173 -0.021409,-0.254816 -0.091772,-1.054238 -0.1563542,-1.776498 -0.064583,-0.722259 -0.1336793,-1.533104 -0.1535482,-1.801879 -0.019869,-0.268775 -0.055468,-0.714528 -0.079113,-0.990563 -0.023645,-0.276036 -0.060141,-0.716138 -0.0811,-0.978 -0.020964,-0.261866 -0.065591,-0.765912 -0.099177,-1.120099 -0.1080851,-1.139897 -0.2878428,-3.908503 -0.3654744,-5.629052 -0.021658,-0.479969 -0.048607,-1.069046 -0.05989,-1.309063 -0.011286,-0.24002 -0.027333,-0.667137 -0.035659,-0.949154 -0.00833,-0.282017 -0.024706,-0.697647 -0.036398,-0.923622 -0.02579,-0.498452 -0.057215,-1.856166 -0.055166,-2.383235 8.294e-4,-0.211005 0.0028,-0.728929 0.00439,-1.150944 0.00424,-1.124884 0.00596,-1.437846 0.010433,-1.892431 0.00221,-0.224978 0.00584,-0.59312 0.00806,-0.818096 0.00223,-0.224974 0.00976,-0.673424 0.016764,-0.996554 0.007,-0.323128 0.013207,-0.737136 0.013784,-0.920018 0.00147,-0.460045 0.061599,-1.868254 0.1470414,-3.443215 0.039535,-0.728849 0.1079169,-1.992414 0.1519584,-2.807923 0.044036,-0.81551 0.090633,-1.491891 0.1035333,-1.503077 z m 4.46313451,-6.53001 c -0.0034913,6.120614 -0.0065544,11.623414 -0.0068167,12.228445 -4.8222e-4,1.148442 -0.0040758,6.035956 -0.01079607,14.709766 -0.0012152,1.575856 -0.00305924,4.004885 -0.00408734,5.397834 -0.00102232,1.39295 -0.00263102,3.511152 -0.00358004,4.707114 -9.4517e-4,1.195964 -0.0027139712,3.763147 -0.00392725,5.70485 -0.00121521,1.941703 -0.00487241,3.771943 -0.00811297,4.0672 -0.00324827,0.295257 0.00127308,0.744574 0.010057303,0.998481 l 0.015959747,0.461651 0.16962252,0.286615 c 0.0932958,0.157642 0.24239675,0.415746 0.33133558,0.573571 0.0889334,0.157827 0.44459844,0.655627 0.79036641,1.106224 l 0.6286584,0.819271 0.5215337,0.527678 c 0.2868439,0.290223 0.6622349,0.665483 0.8342023,0.833911 l 0.3126687,0.306233 0.333152,0.01038 c 0.183233,0.0057 8.0766692,0.01611 17.5409692,0.02311 l 17.207817,0.01273 0.104178,-0.0602 c 0.0573,-0.03311 0.41639,-0.371628 0.797983,-0.752272 l 0.693807,-0.692077 0.674325,-0.864739 0.674328,-0.864733 0.383259,-0.645468 0.383264,-0.64546 0.02263,-26.477347 c 0.01244,-14.562537 0.0215,-26.926415 0.02011,-27.475283 -0.0014,-0.5488672 -0.0019,-2.0996801 -0.0012,-3.446255 L 42.44118,4.5200669 42.322801,4.3248754 C 42.257691,4.2175185 42.121993,3.9856084 42.021244,3.8095188 41.796425,3.4165724 41.662549,3.2201811 41.328546,2.7933477 41.185913,2.6110779 41.006797,2.3800686 40.930507,2.2799952 40.529596,1.7541107 39.660664,0.81534444 39.383764,0.6089441 39.306543,0.55138564 39.244646,0.48642404 39.246216,0.464585 39.247759,0.44274596 39.134652,0.33488749 38.994809,0.2249053 L 38.740548,0.02492821 36.719351,0.02627844 C 35.60769,0.02705 34.191551,0.02830379 33.572369,0.02909464 32.109217,0.03102354 13.948055,0.01593952 12.978842,0.01202385 10.973366,0.00390317 4.3182994,0.00147275 4.0345711,0.008764 L 3.7111303,0.01707758 3.4820351,0.22147764 C 3.1295456,0.53597756 2.6036605,1.0542526 2.496189,1.1930661 2.4430596,1.2616868 2.3530019,1.3497682 2.2960628,1.3888034 2.2391235,1.4278387 1.8731201,1.866774 1.4827229,2.3642169 L 0.77290683,3.2686583 0.42224847,3.8684102 0.0715955,4.4681621 0.05289479,4.728454 C 0.04264074,4.8716172 0.03139485,9.9965234 0.02790392,16.117137 Z"
       id="path6530"
       inkscape:transform-center-x="-155.06229"
       inkscape:transform-center-y="109.8224"
       inkscape:label="large-inner"
       inkscape:export-filename="../static/img/large-inner.png"
       inkscape:export-xdpi="96"
       inkscape:export-ydpi="96" /><path
       style="opacity:1;fill:#ffffff;stroke-width:0.0510355"
       d="m -16.404167,17.197917 h 0.793751 l 0.165209,0.0015 0.165483,-0.08407 0.274554,-0.343235 c 0.406859,-0.508646 0.414631,-0.518107 0.790279,-0.961894 0.190869,-0.225492 0.400539,-0.47522 0.465923,-0.554947 0.06539,-0.07973 0.291048,-0.346421 0.501468,-0.592654 0.210417,-0.24623 0.472975,-0.561231 0.583459,-0.700004 0.110485,-0.138773 0.40094,-0.491219 0.645455,-0.783214 0.244515,-0.291993 0.498454,-0.596102 0.564306,-0.675797 0.06585,-0.0797 0.293329,-0.351168 0.505502,-0.60327 0.212174,-0.252106 0.438907,-0.523632 0.503853,-0.603394 0.06495,-0.07976 0.291681,-0.351284 0.5038524,-0.60339 0.2121754,-0.252105 0.4389084,-0.523631 0.5038526,-0.603389 0.064946,-0.07976 0.2902459,-0.3464795 0.500668,-0.5927098 0.2104144,-0.2462302 0.4729747,-0.5612336 0.5834546,-0.7000047 0.1104875,-0.1387749 0.4009417,-0.4912183 0.645458,-0.7832137 0.2445162,-0.2919934 0.4984532,-0.5961043 0.5643052,-0.6757988 0.065852,-0.079693 0.2933288,-0.3511665 0.5055022,-0.6032702 0.2121733,-0.2521057 0.4386528,-0.5236509 0.503288,-0.6034323 0.06463,-0.079781 0.2536087,-0.3051659 0.4199507,-0.5008512 l 0.3024366,-0.3557939 0.044434,-0.1821251 C -5.3039163,4.8314671 -5.2456928,4.6812538 -4.9601796,4.0415389 -4.8202231,3.727961 -4.6507593,3.3371941 -4.583597,3.173168 -4.3304827,2.5550298 -4.1439746,2.2039926 -3.5623505,1.2510219 l 0.5983326,-0.98035723 0.3163789,-0.41219114 c 0.1740096,-0.22670397 0.4237537,-0.54239402 0.5549891,-0.70153045 0.1312357,-0.15913638 0.3542946,-0.43627348 0.495682,-0.61586018 0.1413928,-0.1795866 0.65194492,-0.715976 1.13456088,-1.191981 l 0.87748865,-0.8654602 1.04218537,-0.7881845 1.0421803,-0.7881845 1.111143,-0.6318469 1.111143,-0.6318507 1.3646779,-0.5422803 1.3646832,-0.542286 0.6254368,-0.159119 c 0.3439901,-0.087514 0.7902112,-0.205216 0.9916025,-0.2615612 1.1306273,-0.3163092 5.1258313,-0.896585 7.3416993,-1.0663304 0.311274,-0.023845 0.635894,-0.055402 0.721378,-0.070131 l 0.06671,0.00231 v -2.1166662 h 7.937499 v 0 2.1166662 l 0.101969,-0.00617 1.538582,0.1459813 1.538581,0.1459813 1.368066,0.1980019 c 1.40186,0.2028936 2.951263,0.4733933 3.487567,0.6088698 0.16584,0.041894 0.719448,0.1881664 1.230241,0.3250491 l 0.928711,0.2488767 1.143676,0.4616694 c 1.23404,0.4981431 1.439823,0.5958941 2.300755,1.0928798 1.215232,0.7015189 1.516274,0.8992816 2.296471,1.5086143 0.226497,0.1768939 0.532051,0.4107213 0.679008,0.5196176 0.254934,0.1889052 1.850592,1.7172541 2.113949,2.0247772 0.353525,0.4128141 1.58902,2.023886 1.726103,2.25081951 0.900478,1.49068899 1.334884,2.30007019 1.617297,3.01331879 0.09748,0.2462109 0.257441,0.6145928 0.355456,0.8186264 0.09802,0.2040355 0.195026,0.4412559 0.21558,0.5271596 0.02055,0.085902 0.08197,0.3090546 0.136487,0.4958939 0.210916,0.7228641 0.282307,0.971465 0.315062,1.0971427 0.01869,0.071697 0.07495,0.2599409 0.125027,0.4183192 0.05008,0.1583784 0.110091,0.4274797 0.133359,0.5980024 0.02327,0.1705247 0.07729,0.5312951 0.120055,0.8017138 0.182476,1.1539431 0.243449,1.6170033 0.299275,2.2728541 0.03254,0.382254 0.07937,0.903687 0.104082,1.158736 0.02471,0.255053 0.06676,0.741603 0.09345,1.081223 0.02669,0.33962 0.06946,0.849248 0.09505,1.132508 0.02559,0.283257 0.07225,0.804674 0.103684,1.158707 0.03144,0.354031 0.08258,0.910311 0.113649,1.236174 0.03107,0.325865 0.07425,0.82401 0.09596,1.106986 0.0217,0.28298 0.05903,0.72314 0.08294,0.978135 0.02391,0.254993 0.06935,0.764814 0.100982,1.13293 0.03163,0.368117 0.07531,0.866297 0.09707,1.107067 0.06558,0.725543 0.09578,1.094965 0.109425,1.338207 0.0071,0.127149 0.03615,0.509149 0.06449,0.848889 0.02834,0.33974 0.06231,0.814196 0.07548,1.054348 0.01317,0.240154 0.0454,0.760536 0.07161,1.156406 0.02621,0.395869 0.06171,1.043126 0.07888,1.438345 0.01717,0.39522 0.03921,0.891843 0.04898,1.103612 0.01713,0.371028 0.05374,1.343056 0.08889,2.359426 l 0.01682,0.486653 0.04375,0.05052 0.04375,0.05053 0.80783,-0.0012 c 0.444308,-5.79e-4 0.904567,7.71e-4 1.022801,0.0032 l 0.214969,0.0043 0.03371,0.03893 0.03371,0.03893 0.0022,0.882575 c 0.0012,0.485416 0.0024,2.214167 0.0028,3.841665 l 5.79e-4,2.95909 -0.04867,0.04214 -0.04867,0.04215 -0.988382,-0.0095 -0.988381,-0.0095 -0.08111,0.07024 -0.08111,0.07024 0.0035,0.388539 c 0.0019,0.213704 -0.03023,1.168983 -0.07141,2.122849 l -0.07487,1.734303 -0.182795,2.545221 -0.182794,2.545224 -0.506951,5.643127 -0.506952,5.643125 -0.199259,1.290446 -0.199262,1.290446 -0.337986,1.178143 -0.337984,1.178145 -0.372638,0.868655 c -0.62925,1.46684 -0.677228,1.562106 -1.374457,2.729195 l -0.676788,1.13287 -0.333399,0.390608 c -0.18337,0.214838 -0.465099,0.572431 -0.626068,0.79466 -0.309414,0.427167 -0.573693,0.727129 -0.91633,1.040059 -0.114704,0.104755 -0.37483,0.360348 -0.578057,0.567983 -0.398853,0.407492 -1.214098,1.123003 -1.622202,1.423742 -0.36869,0.271696 -0.666011,0.497416 -0.82996,0.63008 -0.24983,0.202165 -0.565541,0.397136 -1.551384,0.958086 l -0.958553,0.545423 -1.267351,0.524208 -1.267349,0.524205 -0.643311,0.179146 c -0.35382,0.09854 -0.960036,0.261077 -1.347144,0.361211 l -0.703835,0.182055 -0.968458,0.165091 c -1.499819,0.255669 -2.452898,0.393518 -3.686752,0.533234 -1.074698,0.121691 -0.985185,0.112536 -1.726788,0.176641 -0.576582,0.04984 -0.915931,0.07187 -2.256092,0.146413 l -0.37949,0.02111 -0.05236,0.04534 -0.05236,0.04534 -0.003,1.167361 -0.003,1.167364 -0.03988,0.03205 c -0.04184,0.03362 -1.372677,0.04908 -1.76976,0.02055 l -0.230676,-0.01657 -0.0079,-0.269196 c -0.0066,-0.226069 -0.004,-3.126466 0.0042,-4.579152 l 0.0024,-0.421959 0.07087,0.0041 c 0.213132,0.01232 2.157787,-0.06102 3.021467,-0.113966 2.142964,-0.131377 4.265877,-0.395089 6.384003,-0.793035 l 0.993478,-0.186653 1.17725,-0.32366 1.17725,-0.323658 0.939383,-0.403743 0.939382,-0.403735 0.72011,-0.408574 c 1.067235,-0.605529 1.439847,-0.850746 2.336225,-1.537498 l 0.812211,-0.622268 0.733745,-0.731932 0.733743,-0.731929 0.728047,-0.915587 0.728051,-0.915608 0.62135,-1.055451 c 0.700385,-1.189697 0.64527,-1.084028 0.913147,-1.750831 0.109883,-0.273524 0.218457,-0.519002 0.241276,-0.545503 0.07106,-0.08253 0.366201,-0.917572 0.546742,-1.546901 0.310918,-1.083778 0.369308,-1.343047 0.527306,-2.341388 0.167628,-1.059189 0.21902,-1.554582 0.487368,-4.697941 0.09552,-1.118814 0.250893,-2.926642 0.345286,-4.017396 0.370361,-4.279624 0.777984,-10.341489 0.808098,-12.017376 0.0035,-0.196741 0.01163,-0.622125 0.01798,-0.9453 0.05445,-2.770967 0.06431,-3.833021 0.04201,-4.525272 -0.0082,-0.253863 -0.01458,-0.645752 -0.01422,-0.870859 5.79e-4,-0.353637 -0.0179,-1.380687 -0.03043,-1.690701 -0.0023,-0.05645 -0.006,-0.30999 -0.0082,-0.563428 -0.0022,-0.253439 -0.01779,-0.738086 -0.03456,-1.076992 -0.01678,-0.338908 -0.04214,-0.904846 -0.05636,-1.257643 -0.05612,-1.391487 -0.158747,-3.250967 -0.223988,-4.058292 -0.0626,-0.774619 -0.09383,-1.146413 -0.220557,-2.625366 -0.02305,-0.269005 -0.06063,-0.709185 -0.08352,-0.978178 -0.02289,-0.268991 -0.05997,-0.69762 -0.0824,-0.952509 -0.02243,-0.254888 -0.05203,-0.625418 -0.06577,-0.823399 -0.02749,-0.396054 -0.08091,-1.061001 -0.148838,-1.852709 -0.09572,-1.115578 -0.129096,-1.513132 -0.168576,-2.007628 -0.0226,-0.283043 -0.04854,-0.561208 -0.05764,-0.618146 -0.0091,-0.05694 -0.02649,-0.265413 -0.03863,-0.463278 -0.02097,-0.341707 -0.0585,-0.810669 -0.148232,-1.852665 -0.02195,-0.254854 -0.05242,-0.613935 -0.06771,-0.797954 -0.0153,-0.184021 -0.06368,-0.532875 -0.107525,-0.775232 C 45.92719,9.8118599 45.878674,9.514805 45.863229,9.3940904 45.768638,8.6548074 45.697681,8.292193 45.550957,7.7982703 45.40645,7.3118049 45.290847,6.9039075 45.225299,6.6491958 45.155254,6.3770122 44.704697,5.2584741 44.408144,4.620557 44.18116,4.1322918 43.98307,3.7668361 43.53041,3.0012487 43.410249,2.7980156 43.260838,2.541674 43.19839,2.4316051 43.026878,2.1292939 41.669505,0.39647929 41.47005,0.22521585 41.373999,0.14273596 41.250377,0.02553389 41.195334,-0.03524006 41.140295,-0.09601401 41.003296,-0.23293333 40.890897,-0.33950329 40.778496,-0.44607518 40.577117,-0.6521341 40.443384,-0.7974075 L 40.200238,-1.0615438 39.545312,-1.5602886 C 38.417253,-2.4193372 38.342745,-2.4706942 37.374887,-3.0563535 L 36.429306,-3.6285298 35.365981,-4.08356 34.302656,-4.5385901 33.152218,-4.8551212 32.001779,-5.1716522 31.118511,-5.3408209 c -0.4858,-0.093043 -1.464163,-0.2561795 -2.174141,-0.3625238 l -1.29087,-0.1933532 -1.804774,-0.162267 -1.804775,-0.1622632 -1.276945,-0.031069 c -1.629133,-0.039635 -3.37878,-0.0103 -4.687434,0.078574 -0.18382,0.01248 -0.611805,0.040592 -0.951079,0.062462 -0.339274,0.021868 -0.930225,0.074884 -1.313225,0.1178136 -0.383,0.04293 -0.812261,0.088797 -0.953914,0.101929 -0.141653,0.013136 -0.536826,0.065251 -0.878161,0.1158171 -0.341336,0.050568 -0.824,0.119374 -1.072587,0.1529003 -0.248586,0.033526 -0.586514,0.090066 -0.750949,0.125643 -0.164435,0.035573 -0.520523,0.1038 -0.791306,0.1516098 -0.83473,0.1473875 -1.093458,0.2101289 -2.4214563,0.5872063 -0.2872795,0.081573 -0.5809114,0.162539 -0.6525151,0.1799261 -0.2593275,0.062967 -2.209737,0.9312706 -2.5420207,1.1316816 -0.1296736,0.078211 -0.5599925,0.3284633 -0.9562639,0.5561201 L 4.0756019,-2.4766931 3.695425,-2.170364 c -0.2090975,0.16848 -0.4992009,0.3960481 -0.6446674,0.5057063 -0.2771212,0.2088963 -0.818072,0.67521054 -1.0939833,0.94304065 -0.089116,0.0865036 -0.3806408,0.37182499 -0.6478294,0.63404971 L 0.82313778,0.38919961 0.21182829,1.163957 -0.39948138,1.9387125 -1.100405,3.1163656 -1.8013288,4.2940207 -2.0563246,4.8897064 c -0.1402497,0.3276262 -0.3359927,0.7973719 -0.4349813,1.0438799 l -0.1799755,0.448198 -0.3065939,1.0774428 -0.3065889,1.0774427 -0.1553549,1.0633483 -0.1553548,1.0633479 -0.4814204,5.542626 -0.4814206,5.542628 -0.2266652,3.53983 -0.226665,3.539828 -0.035158,1.595579 c -0.1205921,5.472857 -0.03474,9.604481 0.2947017,14.182531 0.04275,0.594052 0.098807,1.380935 0.1245757,1.74863 0.025764,0.367699 0.07936,1.050791 0.119103,1.517987 0.039737,0.467197 0.08353,0.988408 0.097311,1.158252 0.013786,0.16984 0.044293,0.528923 0.067797,0.79796 0.023498,0.269036 0.061455,0.70924 0.084343,0.978234 0.061737,0.725547 0.1252064,1.463298 0.1683139,1.956442 0.021041,0.240719 0.058865,0.680912 0.084053,0.978212 0.025188,0.2973 0.062997,0.737497 0.084023,0.978212 0.021025,0.240716 0.058478,0.680886 0.083228,0.978155 0.050735,0.609402 0.099041,1.165645 0.1699076,1.956555 0.026649,0.297404 0.124193,1.051646 0.2167709,1.676094 l 0.1683176,1.135358 0.28937,1.020958 c 0.159159,0.561527 0.3456139,1.151637 0.414349,1.311356 0.068735,0.159718 0.202404,0.491673 0.2970472,0.73768 0.1953566,0.507797 0.7435017,1.626792 0.9352385,1.909205 0.070299,0.103547 0.228646,0.366138 0.35187914,0.583543 0.12323877,0.217401 0.25629141,0.450964 0.29568154,0.519027 0.0393899,0.06807 0.3755306,0.517139 0.74697906,0.997937 l 0.67536353,0.874185 0.79311803,0.788399 0.7931182,0.788396 0.7702128,0.59796 c 1.1545101,0.896319 1.1801468,0.914701 1.551905,1.112717 0.1897329,0.101059 0.5790679,0.326035 0.8651884,0.499945 l 0.52022,0.316191 1.0120882,0.433666 1.0120883,0.433663 1.2290179,0.34208 1.2290189,0.342073 0.832857,0.158685 c 0.458071,0.08728 1.151745,0.206902 1.541498,0.265832 0.389752,0.05894 0.970282,0.150987 1.290064,0.204564 l 0.581424,0.09741 2.544147,0.197767 2.544147,0.197764 -2.32e-4,2.600576 -2.31e-4,2.60057 -0.03584,0.03358 -0.03584,0.03357 -1.477524,0.002 -1.477525,0.002 -0.03989,-0.04606 -0.03989,-0.04606 2.31e-4,-1.201156 2.32e-4,-1.201163 -0.03909,-0.05947 -0.03909,-0.05947 L 15.415541,77.733 C 13.867334,77.577937 12.244567,77.352024 10.716993,77.078897 L 9.5298163,76.866631 8.3246647,76.548453 7.1195129,76.230278 5.8367914,75.702754 4.5540692,75.175234 3.9794369,74.847947 C 2.8814135,74.222559 2.4208346,73.936539 1.9863637,73.610265 1.7460519,73.429799 1.3961045,73.172905 1.2087039,73.039383 0.86979022,72.797919 0.22892551,72.269556 0.07190239,72.102139 0.02665245,72.053891 -0.10120199,71.927303 -0.2122092,71.820831 -0.32322162,71.71436 -0.52140097,71.51592 -0.65260611,71.379855 -0.78381685,71.24379 -0.94036411,71.094391 -1.000494,71.047858 c -0.1180006,-0.09132 -0.8338354,-0.934829 -1.2514011,-1.474598 -0.1416274,-0.183078 -0.3402353,-0.427972 -0.4413461,-0.544211 -0.1725168,-0.19832 -0.2519809,-0.318736 -0.6529782,-0.989487 -0.8688254,-1.453293 -1.3396002,-2.334914 -1.3285979,-2.488057 0.0026,-0.03615 -0.083151,-0.232616 -0.1905506,-0.436598 -0.1073998,-0.203977 -0.2284967,-0.465361 -0.2690953,-0.580844 -0.040604,-0.115486 -0.1113285,-0.304769 -0.15716,-0.420629 -0.045837,-0.115859 -0.1082132,-0.304542 -0.1386104,-0.419295 -0.030402,-0.114752 -0.1234705,-0.44379 -0.2068245,-0.731197 -0.2656105,-0.915872 -0.429265,-1.545585 -0.4232895,-1.628764 0.00319,-0.04442 -0.018485,-0.199647 -0.048166,-0.344959 -0.029686,-0.145314 -0.095875,-0.543522 -0.1470965,-0.884905 -0.051217,-0.341383 -0.1075456,-0.690808 -0.1251717,-0.776499 -0.017626,-0.08569 -0.03754,-0.282839 -0.044248,-0.438101 -0.016662,-0.385636 -0.06111,-0.628367 -0.1993671,-1.088831 -0.099772,-0.332296 -2.6581773,-7.780515 -2.9855777,-8.691826 -0.060404,-0.16814 -0.126889,-0.352991 -0.1477385,-0.410771 -0.020848,-0.05778 -0.077993,-0.223064 -0.1269913,-0.367292 -0.048996,-0.144232 -0.1061726,-0.309514 -0.1270606,-0.3673 -0.02089,-0.05778 -0.590595,-1.713751 -1.26602,-3.679926 -0.675417,-1.966176 -1.277779,-3.713314 -1.338587,-3.882533 -0.06081,-0.169219 -0.127622,-0.354945 -0.148472,-0.412727 -0.02085,-0.05778 -0.07799,-0.223064 -0.126991,-0.367292 -0.049,-0.14423 -0.106198,-0.309518 -0.127113,-0.367304 -0.02092,-0.05779 -0.07826,-0.223082 -0.127423,-0.367323 -0.04917,-0.144243 -0.120489,-0.345081 -0.158494,-0.446308 -0.03801,-0.101227 -0.09293,-0.254837 -0.122048,-0.341354 -0.561509,-1.668184 -1.944157,-5.696378 -2.07978,-6.059214 -0.119997,-0.321039 -0.207453,-0.564805 -0.301489,-0.840335 -0.03446,-0.100972 -0.08917,-0.246604 -0.121575,-0.323631 -0.0324,-0.07703 -0.05654,-0.173048 -0.05365,-0.213383 0.0029,-0.04034 -0.0339,-0.114263 -0.08177,-0.164273 l -0.07441,-0.07099 h -0.264584 v 0 0 z m 0.971444,0.488549 0.07644,0.03581 0.905469,0.0068 0.905479,0.0068 0.159291,0.172787 c 0.08761,0.09504 0.179772,0.174263 0.204813,0.176063 l 0.04552,0.0033 0.0068,-0.09434 c 0.0037,-0.05188 0.0021,-0.239413 -0.0037,-0.416726 l -0.01045,-0.322385 -1.036122,-0.04846 -1.036118,-0.04846 -0.134593,0.07499 -0.134599,0.07499 -0.01233,0.171543 -0.01233,0.171547 z m -0.05559,6.039939 c -0.0014,1.969842 -0.006,3.773848 -0.01057,4.008895 l -0.0083,0.427368 0.0639,0.07236 0.06389,0.07236 3.683698,0.0046 3.6836992,0.0046 0.096997,-0.07243 0.096997,-0.07243 -0.00745,-0.105687 -0.00745,-0.105696 -0.1517237,-0.02475 c -0.083448,-0.01362 -1.4179365,-0.02407 -2.9655325,-0.02325 l -2.813812,0.0015 -0.03271,-0.03865 -0.0327,-0.03866 0.0037,-1.202156 c 0.002,-0.661188 -0.0038,-1.257304 -0.01308,-1.324701 l -0.0168,-0.122544 -0.595169,-0.02375 -0.595161,-0.02377 -0.01966,-0.20608 c -0.0108,-0.113345 -0.01522,-0.68386 -0.0098,-1.267814 l 0.0099,-1.061738 0.05102,-0.04377 0.05102,-0.04377 0.528868,0.0017 0.528869,0.0017 0.03645,-0.07781 0.03646,-0.07782 0.0029,-1.251868 0.0029,-1.251871 0.05195,-0.04499 0.05195,-0.04498 3.085658,5.79e-4 c 1.6971114,3.86e-4 3.1487125,0.0043 3.2257776,0.0089 l 0.1401252,0.0081 0.010524,-0.14648 0.010524,-0.146477 -0.059838,-0.05736 -0.059838,-0.05735 -3.9908258,-0.0029 -3.990826,-0.0029 -0.07388,0.05054 -0.07387,0.05054 0.0067,0.334381 c 0.0037,0.183907 0.0056,1.94607 0.0044,3.91591 z m 0.451359,6.759227 c 0.259046,0.01765 0.633033,0.02005 0.831089,0.0052 0.198058,-0.01481 0.567678,-0.03174 0.821377,-0.03764 0.253701,-0.0059 0.46713,-0.01209 0.474289,-0.01379 0.02515,-0.0059 0.05425,-0.592306 0.04652,-0.937136 l -0.0078,-0.348599 -0.133488,0.0059 -0.133482,0.0059 -0.04231,0.204074 -0.04231,0.204068 -0.179529,0.19323 -0.179527,0.193222 -0.902599,-0.0024 c -0.496432,-0.0013 -0.92243,0.008 -0.946657,0.02065 l -0.04406,0.02304 -0.01624,0.226067 -0.01624,0.226066 0.470988,0.0321 z"
       id="path6524"
       inkscape:transform-center-x="-155.88353"
       inkscape:transform-center-y="126.49276"
       sodipodi:nodetypes="ccccssssssssscsccssscccscccccscccccccccscssccccccccssscssssssssscsssssssssssssssssssssccccccccccccccccccscccccccccsscssssssscccsscsssscccccsscssccsscccccsscccccsssssssscsscssssssssssssssssssssssssscsscccccsscccsssscssccscsscccccccccccccccccccccssssssssssssscssssssscccssscccccssscccccccccccccccsscccccssssssssssssssssssssssssssssssssscsscssccccccccccccscccccccccscccccccccccccccssccccscccccccccccccccccccccccssccccsccccccccsccccc"
       inkscape:label="large-outer"
       inkscape:export-filename="../static/img/large-outer.png"
       inkscape:export-xdpi="96"
       inkscape:export-ydpi="96" /><path
       id="rect7598"
       style="display:none;opacity:0.523248;fill:#ffff00;stroke-width:0.132291;stroke-linecap:round;stroke-linejoin:round"
       inkscape:label="workarea"
       d="M 42.333332,0 V 68.791664 H 0 V 0 Z" /></g><g
     inkscape:groupmode="layer"
     id="layer3"
     inkscape:label="medium"
     style="display:none"><path
       id="rect7600"
       style="display:none;opacity:0.523248;fill:#ffff00;stroke:none;stroke-width:0.132292;stroke-linecap:round;stroke-linejoin:round"
       inkscape:label="workarea"
       d="M 21.166664,0 V 26.45833 H 0 V 0 Z" /><path
       id="path7313"
       style="fill:#ffffff;stroke-width:0.0277334"
       d="m 19.327295,27.630718 0.354951,-0.121114 0.244492,-0.156281 c 0.134472,-0.08595 0.343818,-0.21847 0.465215,-0.294481 l 0.220721,-0.138203 0.0964,-0.102737 c 0.05302,-0.05651 0.122615,-0.132516 0.154662,-0.168917 0.03205,-0.0364 0.07398,-0.07956 0.09319,-0.09593 0.01921,-0.01636 0.132972,-0.134363 0.252802,-0.262229 l 0.217878,-0.232484 0.228736,-0.423442 c 0.315637,-0.584318 0.332099,-0.62646 0.475399,-1.217028 l 0.126758,-0.522405 0.06181,-0.578274 c 0.034,-0.318052 0.09984,-0.931976 0.146326,-1.364277 0.188871,-1.756617 0.252992,-2.367577 0.300168,-2.860135 0.0062,-0.06504 0.01477,-0.151239 0.01897,-0.191567 0.0042,-0.04033 0.01869,-0.219161 0.03218,-0.397405 0.01349,-0.178244 0.02949,-0.370779 0.03554,-0.427853 0.05338,-0.502884 0.09065,-0.98377 0.104867,-1.352796 0.0059,-0.151982 0.01918,-0.447043 0.02961,-0.65569 0.0427,-0.853713 0.06319,-1.320198 0.06399,-1.456584 9.79e-4,-0.168264 0.0015,-0.599535 10e-4,-0.806044 -1.92e-4,-0.07908 -3.8e-4,-0.266804 -4.18e-4,-0.417155 -3.5e-5,-0.15035 -4.42e-4,-0.33801 -9.04e-4,-0.41702 -4.62e-4,-0.07901 -5.41e-4,-0.266759 -1.72e-4,-0.417222 8.3e-4,-0.339693 -0.0023,-0.501046 -0.01482,-0.77288 -0.0054,-0.117208 -0.01305,-0.289914 -0.01698,-0.383793 -0.0039,-0.09388 -0.01248,-0.285756 -0.019,-0.426396 -0.0065,-0.140639 -0.01352,-0.30705 -0.01553,-0.369802 -0.002,-0.06275 -0.0092,-0.2291 -0.01604,-0.369662 -0.0068,-0.140561 -0.01416,-0.3068731 -0.01633,-0.3695807 -0.0022,-0.062707 -0.01702,-0.2593168 -0.033,-0.436909 C 22.86606,8.8272075 22.791744,7.9666487 22.776582,7.7662258 22.765776,7.6233469 22.67553,6.7638193 22.576928,5.8646649 22.456042,4.762291 22.359791,3.8722919 22.30498,3.3500249 L 22.250684,2.8326814 22.110974,2.2526617 21.971264,1.6726419 21.770761,1.2965103 C 21.660483,1.0896387 21.519961,0.83179529 21.458492,0.72352524 L 21.346728,0.52667105 21.281119,0.47224058 C 21.21978,0.42135432 21.107233,0.30357343 20.737349,-0.0968111 l -0.150553,-0.16297015 -0.492312,-0.30287849 -0.492309,-0.30287906 -0.508023,-0.1568908 -0.508024,-0.1568919 -0.333716,-0.061983 c -0.183543,-0.034092 -1.005395,-0.1493345 -1.826335,-0.2560947 l -1.49262,-0.1941109 -1.464924,-0.094104 c -0.805708,-0.051756 -1.587795,-0.093555 -1.737971,-0.092886 -0.150176,6.703e-4 -0.312192,1.515e-4 -0.360035,-0.00115 -0.04784,-0.0013 -0.539738,-5.938e-4 -1.093099,0.00158 -0.5533611,0.00217 -1.0454727,0.0021 -1.0935821,-1.69e-4 -0.04811,-0.00226 -0.7614122,0.040648 -1.5851178,0.095361 l -1.497645,0.099477 -0.4301759,0.057314 c -0.2365961,0.031522 -0.7363261,0.097459 -1.1105112,0.1465255 -1.2957801,0.1699152 -1.4589024,0.1922518 -1.7328653,0.2372851 l -0.2752424,0.045244 -0.5944259,0.1916047 -0.5944249,0.1916044 -0.46574301,0.29257104 -0.46574374,0.29257233 -0.0538996,0.06515 c -0.029646,0.0358331 -0.0696323,0.07848771 -0.088859,0.09478885 -0.0192267,0.01630113 -0.0644642,0.06337388 -0.10052727,0.10460704 -0.0360641,0.04123344 -0.0861953,0.09401527 -0.11140338,0.11729366 -0.02520809,0.0232784 -0.07533898,0.0760612 -0.11140309,0.11729467 -0.03606311,0.0412332 -0.0812329,0.0885504 -0.10037704,0.1051495 -0.0191444,0.0165981 -0.0791129,0.0806217 -0.1332624,0.1422734 l -0.0984547,0.11209469 -0.22558556,0.41066342 c -0.12407033,0.2258649 -0.25251236,0.4699196 -0.28542226,0.5423444 l -0.059839,0.1316805 -0.12838645,0.5292643 -0.1283863,0.5292654 -0.1024453,0.9447475 c -0.056346,0.5196114 -0.140134,1.2983533 -0.1862012,1.7305405 -0.046065,0.4321857 -0.1105022,1.0198206 -0.1431885,1.3058533 -0.032689,0.2860346 -0.060585,0.5527556 -0.061994,0.5927141 -0.00141,0.039958 -0.0097,0.1458538 -0.018437,0.2353243 -0.016987,0.1740517 -0.034087,0.3712666 -0.058803,0.678161 -0.00847,0.1052257 -0.02218,0.264419 -0.030459,0.3537625 -0.00828,0.089345 -0.02183,0.2484945 -0.030117,0.3536677 -0.00829,0.1051739 -0.022967,0.2840611 -0.032629,0.3975298 -0.031729,0.3726921 -0.078586,1.3514495 -0.1277461,2.6684965 -0.00687,0.183917 -0.010884,0.424601 -0.00893,0.534853 0.00195,0.110251 0.00343,0.420636 0.00329,0.689743 -1.414e-4,0.269107 3.438e-4,0.527968 0.00108,0.575247 7.335e-4,0.04728 8.968e-4,0.209107 3.627e-4,0.359615 -0.00175,0.493664 0.1000912,2.707424 0.1522923,3.310375 0.028102,0.324595 0.065456,0.761018 0.08301,0.969827 0.044679,0.531498 0.1707794,1.778225 0.233587,2.309434 0.028993,0.245211 0.062721,0.55314 0.074952,0.684286 0.012232,0.131146 0.041772,0.401385 0.065647,0.60053 0.023875,0.199147 0.053067,0.469482 0.064872,0.600747 0.011804,0.131264 0.043226,0.433356 0.069827,0.671316 l 0.048365,0.432653 0.1425244,0.624898 0.1425242,0.624896 0.21063384,0.385226 c 0.11584897,0.211872 0.24506777,0.44691 0.28715258,0.522306 l 0.0765188,0.137084 0.12569753,0.137853 c 0.34516747,0.378544 0.64117782,0.680406 0.74244278,0.757123 0.0375541,0.02845 0.22250948,0.146161 0.41101118,0.261582 0.18850169,0.115421 0.37615019,0.234434 0.41699689,0.264475 l 0.074269,0.05462 0.6316499,0.189524 c 0.3474078,0.104236 0.6664836,0.192599 0.709056,0.196356 0.042572,0.0038 0.1656815,0.02165 0.2735755,0.03977 0.2642059,0.04435 0.2932244,0.04842 0.4640381,0.06496 0.081319,0.0079 0.2288895,0.02638 0.3279352,0.04111 0.2817329,0.04192 0.3027844,0.04478 0.5980888,0.0814 0.1549274,0.01921 0.2852101,0.03761 0.4737811,0.06691 0.1127923,0.01753 0.2164293,0.02873 0.230304,0.02488 0.013874,-0.0038 0.049279,-0.0013 0.078681,0.0056 0.029398,0.0069 0.100436,0.01857 0.1578598,0.02589 0.057425,0.0073 0.1966937,0.02766 0.3094885,0.04518 0.1127923,0.01753 0.2144191,0.02928 0.225834,0.02612 0.011418,-0.0032 0.063366,0.0026 0.1154449,0.01271 0.088935,0.01734 0.9231181,0.07602 1.5758793,0.110842 0.1606493,0.0086 0.4834413,0.02852 0.7173168,0.04432 0.7155208,0.04834 0.8733241,0.05331 1.5531213,0.04889 0.094794,-6.18e-4 0.276018,-8.78e-4 0.402722,-5.76e-4 0.126703,2.98e-4 0.314375,-5.8e-5 0.41705,-7.98e-4 0.102673,-7.39e-4 0.296908,-7.83e-4 0.43163,-1.04e-4 0.250987,0.0013 0.371915,0.0011 0.747997,-7.6e-4 0.118541,-6e-4 0.863987,-0.04435 1.656549,-0.09721 l 1.441022,-0.09612 1.499137,-0.198003 c 0.824524,-0.108904 1.592229,-0.212559 1.706008,-0.23035 0.268702,-0.04201 0.706726,-0.160949 1.150878,-0.312503 z m -0.206673,-1.140689 c -0.01626,-0.0092 -0.261118,-0.01161 -0.701071,-0.0069 -0.0789,8.48e-4 -0.266543,0.0013 -0.416979,0.0011 -0.150435,-2.68e-4 -0.338224,-3.28e-4 -0.417307,-1.34e-4 -0.07908,1.92e-4 -0.266804,3.8e-4 -0.417155,4.18e-4 -0.150352,3.5e-5 -0.338071,2.23e-4 -0.417155,4.18e-4 -0.519786,0.0013 -0.691896,0.0013 -0.935225,1.27e-4 -0.150562,-7.27e-4 -0.338246,-4.08e-4 -0.417074,7.09e-4 -0.07883,0.0011 -0.266547,0.0013 -0.417154,4.18e-4 -0.150608,-8.88e-4 -0.338387,-9.19e-4 -0.417291,-7.2e-5 -0.0789,8.47e-4 -0.266474,0.0016 -0.416826,0.0016 -0.15035,3.6e-5 -0.33807,2.25e-4 -0.417154,4.17e-4 -0.07908,1.95e-4 -0.266872,1.35e-4 -0.417307,-1.33e-4 -0.150435,-2.67e-4 -0.338224,-3.27e-4 -0.417307,-1.33e-4 -0.621379,0.0015 -1.471241,0.0019 -1.769607,7.06e-4 -0.150522,-5.86e-4 -0.338174,-1.51e-4 -0.417002,9.65e-4 -0.07883,0.0011 -0.266547,0.0013 -0.417154,4.18e-4 -0.150608,-8.87e-4 -0.3383882,-9.18e-4 -0.4172907,-7.2e-5 -0.078902,8.47e-4 -0.2665433,0.0013 -0.4169787,0.0011 -0.1504351,-2.66e-4 -0.3382229,-3.27e-4 -0.4173071,-1.33e-4 -0.079084,1.92e-4 -0.2603284,3.83e-4 -0.4027643,4.22e-4 -0.142437,3.9e-5 -0.4466861,2.93e-4 -0.6761083,5.68e-4 -0.2294221,2.76e-4 -0.5402687,8.8e-5 -0.6907715,-4.23e-4 -0.150502,-5.08e-4 -0.3381369,-1.2e-5 -0.4169644,0.0011 -0.078828,0.0011 -0.2665478,0.0013 -0.417155,4.17e-4 -0.1506069,-8.86e-4 -0.3383865,-9.18e-4 -0.4172901,-7.1e-5 -0.078902,8.47e-4 -0.2664745,0.0016 -0.4168252,0.0016 -0.1503509,3.8e-5 -0.3380709,2.26e-4 -0.4171547,4.18e-4 -0.079084,1.94e-4 -0.266872,1.34e-4 -0.4173074,-1.34e-4 -0.1504351,-2.66e-4 -0.3382229,-3.26e-4 -0.4173071,-1.32e-4 -0.6460927,0.0016 -1.4762537,0.0019 -1.7696427,5.72e-4 -0.1505439,-6.59e-4 -0.2993891,-3.8e-4 -0.3307667,6.21e-4 -0.031378,10e-4 -0.1449995,3.13e-4 -0.2524911,-0.0015 l -0.1954407,-0.0033 -0.3201359,-0.19577 -0.320138,-0.19577 -0.1527566,-0.167197 C 0.92524251,25.840181 0.75930083,25.65589 0.64049934,25.522602 L 0.42449673,25.280261 0.22354068,24.912496 0.02258508,24.544729 0.01868848,20.465586 c -0.0021429,-2.24353 -0.0026665,-4.118335 -0.0011655,-4.166232 0.001503,-0.0479 0.0019721,-0.300549 0.001044,-0.561446 -0.0029225,-0.821542 -0.0058232,-3.085579 -0.0041466,-3.236294 8.8275e-4,-0.07938 0.0011338,-0.357871 5.6133e-4,-0.618866 -0.0030437,-1.387631 -0.0049082,-3.109975 -0.003499,-3.2364732 8.8174e-4,-0.079381 0.0011281,-0.357869 5.4718e-4,-0.6188625 C 0.01144927,7.7664199 0.01143905,7.1059843 0.01200796,6.5597781 0.0125789,6.0135713 0.01158853,5.5180374 0.00981019,5.4585888 0.00803214,5.3991411 0.0080946,5.2113518 0.00995075,5.0412794 0.0118069,4.871207 0.01171177,4.6677557 0.00974151,4.5891633 0.00776952,4.5105724 0.00661234,4.2777976 0.00716802,4.0718853 0.00772296,3.8659743 0.00777947,3.3711337 0.00729659,2.9722389 0.00681068,2.573345 0.01279674,2.2155685 0.02059796,2.1771808 0.03906898,2.086296 0.46788323,1.314488 0.52850998,1.2630055 0.55413799,1.2412433 0.66958815,1.1203785 0.7850658,0.99441695 0.90054243,0.86845569 1.0571625,0.70921022 1.1331098,0.64053748 L 1.2711952,0.51567939 1.4923859,0.37917093 C 1.7498081,0.22030335 1.8220877,0.19560501 2.0183436,0.19945055 c 0.079467,0.001557 0.241559,0.00265 0.3602035,0.00243 0.1186452,-2.2172e-4 0.3259746,2.5909e-4 0.4607328,0.001069 0.1347585,8.1064e-4 0.3289789,7.192e-4 0.4316031,-2.0152e-4 0.1026232,-9.2045e-4 0.2903432,-0.001109 0.417155,-4.1706e-4 0.1268105,6.9073e-4 0.3145523,5.8146e-4 0.4172018,-2.4404e-4 0.1026507,-8.2476e-4 0.3032451,-0.001284 0.4457657,-0.001021 0.1425199,2.6441e-4 0.3497049,2.2396e-4 0.4604113,-8.866e-5 0.1107053,-3.1234e-4 0.2919255,-5.9069e-4 0.402711,-6.1743e-4 0.1107845,-2.647e-5 0.2985044,-2.1453e-4 0.4171536,-4.1779e-4 0.1186506,-2.0253e-4 0.3063487,-4.6938e-4 0.417106,-5.9383e-4 0.1107587,-1.2372e-4 0.298385,-6.4587e-4 0.4169491,-0.001161 0.2747771,-0.001194 0.5537204,-8.7362e-4 0.8635914,9.8795e-4 0.1347585,8.1065e-4 0.3290007,7.9801e-4 0.4316512,-2.777e-5 0.1026508,-8.2476e-4 0.3032305,-0.001333 0.4457346,-0.00113 0.142504,2.0352e-4 0.32366,-3.0285e-4 0.40257,-0.001127 0.078909,-8.2242e-4 0.2666429,-9.6098e-4 0.4171852,-3.0796e-4 0.1505412,6.5331e-4 0.3642895,9.3246e-4 0.4749959,6.1984e-4 0.1107063,-3.1262e-4 0.2919036,-6.6949e-4 0.4026622,-7.9321e-4 0.110757,-1.2445e-4 0.298385,-6.4687e-4 0.416949,-0.001162 0.274777,-0.001193 0.553719,-8.7333e-4 0.863592,9.8897e-4 0.134757,8.0991e-4 0.329,7.9699e-4 0.431651,-2.777e-5 0.102649,-8.2549e-4 0.30323,-0.001334 0.445734,-0.001131 0.142503,2.0379e-4 0.32366,-3.0285e-4 0.402569,-0.001126 0.07891,-8.227e-4 0.266643,-9.6099e-4 0.417185,-3.0796e-4 0.150543,6.5404e-4 0.364291,9.3319e-4 0.474997,6.2057e-4 0.110705,-3.1336e-4 0.291926,-5.9069e-4 0.40271,-6.1817e-4 0.110786,-2.674e-5 0.298505,-2.1453e-4 0.417155,-4.1705e-4 0.11865,-2.0354e-4 0.306347,-4.7012e-4 0.417106,-5.9384e-4 0.110757,-1.2445e-4 0.298385,-6.4688e-4 0.416949,-0.001162 0.274777,-0.001193 0.55372,-8.7362e-4 0.863592,9.8897e-4 0.134757,8.0991e-4 0.329,7.9699e-4 0.431651,-2.777e-5 0.102649,-8.255e-4 0.30323,-0.001334 0.445734,-0.001131 0.142504,2.0351e-4 0.32366,-3.0285e-4 0.40257,-0.001127 0.07891,-8.2243e-4 0.266643,-9.6099e-4 0.417184,-3.0768e-4 0.150543,6.5404e-4 0.364291,9.3319e-4 0.474997,6.2056e-4 0.398467,-0.001126 0.607529,-9.9317e-4 0.811111,5.1257e-4 l 0.207068,0.001533 0.11081,0.0626149 c 0.06094,0.0344387 0.211977,0.13092354 0.335631,0.21441087 l 0.224826,0.15179611 0.191315,0.20778327 c 0.105224,0.11428054 0.261126,0.28557228 0.346449,0.38064948 l 0.155136,0.1728656 0.183968,0.3428303 c 0.101183,0.1885556 0.193429,0.3766799 0.204991,0.4180541 0.01147,0.041401 0.02109,0.1982282 0.02118,0.3485657 8.8e-5,0.1503359 -7.9e-5,0.474127 -3.64e-4,0.7195318 -8.29e-4,0.7065166 0.001,2.4449546 0.0028,2.6123565 8.72e-4,0.083724 0.0011,0.3361838 4.8e-4,0.5610243 -0.0015,0.5374198 4.69e-4,3.0989791 0.0025,3.2943092 8.62e-4,0.083726 0.0011,0.3361894 4.58e-4,0.5610304 -0.0011,0.422855 2.1e-5,2.835513 0.0017,3.544739 0.0024,1.015661 0.004,2.126368 0.0034,2.401969 -0.0023,1.046433 -4.84e-4,3.949221 0.0027,4.229503 9.92e-4,0.08678 0.001,0.313384 1.1e-4,0.503572 -9.33e-4,0.190188 -4.36e-4,0.753365 0.0011,1.251506 0.0015,0.498139 0.0016,0.96431 1.72e-4,1.035934 -0.0014,0.07162 -0.0027,0.395705 -0.0027,0.720181 l -8.1e-5,0.589956 -0.237127,0.433125 -0.237128,0.433123 -0.05306,0.0438 c -0.02918,0.02409 -0.122413,0.120702 -0.207175,0.214694 -0.08476,0.09399 -0.174741,0.189934 -0.19995,0.213207 -0.02521,0.02327 -0.07536,0.076 -0.111435,0.117177 -0.09403,0.107313 -0.153531,0.152632 -0.421069,0.320702 l -0.238224,0.149656 -0.103301,0.02861 c -0.05681,0.01573 -0.111557,0.02393 -0.121649,0.01822 z"
       inkscape:label="medium-inner" /><path
       style="display:inline;fill:#ffffff;stroke-width:0.0277334"
       d="m 12.672438,32.784911 c 0.0042,-0.04315 0.0065,-0.1688 0.0052,-0.279214 -0.0022,-0.177724 -0.0039,-0.710327 -0.003,-0.948807 4.75e-4,-0.130616 6.01e-4,-0.614298 1.99e-4,-0.777041 -0.0019,-0.779452 -0.0016,-0.790918 0.01869,-0.796551 0.0089,-0.0025 0.626957,-0.04468 1.373552,-0.09382 l 1.357442,-0.08937 1.582921,-0.204834 c 0.870607,-0.112662 1.732246,-0.22783 1.914754,-0.255932 l 0.331832,-0.0511 0.668186,-0.185047 0.668184,-0.185047 0.123078,-0.07514 c 0.06769,-0.04132 0.334124,-0.20317 0.59207,-0.359653 l 0.468991,-0.284516 0.45974,-0.488239 0.459739,-0.488242 0.319433,-0.591266 0.319431,-0.591267 0.148731,-0.622817 0.148735,-0.622819 0.139308,-1.282123 c 0.07662,-0.705168 0.194639,-1.777768 0.262261,-2.383557 0.0994,-0.890433 0.261441,-2.592822 0.279677,-2.938166 0.0021,-0.04016 0.0087,-0.126144 0.01456,-0.191084 0.0059,-0.06494 0.01735,-0.191139 0.02548,-0.28044 0.02116,-0.232677 0.06564,-1.084675 0.09374,-1.795762 0.01328,-0.336056 0.03193,-0.762088 0.04144,-0.946738 0.01696,-0.329199 0.01912,-0.464325 0.01403,-0.877013 -0.0036,-0.293439 -0.0041,-0.6882 -0.0012,-0.939505 0.0014,-0.11909 0.0015,-0.306895 2.8e-4,-0.417348 -0.0072,-0.649611 -0.01535,-1.084761 -0.02353,-1.259682 -0.0051,-0.109378 -0.01751,-0.371414 -0.02755,-0.582303 -0.01004,-0.21089 -0.01991,-0.43478 -0.02192,-0.497533 -0.002,-0.06275 -0.0092,-0.229104 -0.01601,-0.369669 -0.0068,-0.140566 -0.01691,-0.3643867 -0.02248,-0.4973778 -0.0056,-0.1329924 -0.0217,-0.3551458 -0.03584,-0.4936759 -0.01414,-0.1385304 -0.03929,-0.4164603 -0.05588,-0.6176238 -0.01659,-0.2011646 -0.03636,-0.4352586 -0.04394,-0.5202116 -0.0076,-0.084951 -0.03215,-0.363042 -0.0546,-0.6179783 -0.02255,-0.2549274 -0.05715,-0.6144113 -0.077,-0.7988444 C 24.062847,5.9455902 23.993091,5.3109078 23.952356,4.9515556 23.910501,4.5823235 23.840881,3.9550135 23.768,3.2903641 23.690627,2.5847622 23.646778,2.199685 23.620286,1.9931297 L 23.595337,1.7985988 23.448781,1.202295 23.302227,0.60599067 l -0.332968,-0.60904012 -0.332968,-0.6090391 -0.06204,-0.0534389 c -0.06096,-0.0525084 -0.206894,-0.20409319 -0.408721,-0.42454145 -0.05618,-0.061363 -0.186866,-0.1934468 -0.290411,-0.293521 l -0.188268,-0.1819518 -0.530796,-0.3239534 -0.530799,-0.3239529 -0.639636,-0.1884364 -0.639636,-0.1884351 -0.40322,-0.063633 c -0.22177,-0.035 -1.109312,-0.1540205 -1.972312,-0.2644925 l -1.569139,-0.2010263 -1.596789,-0.1026466 c -0.878232,-0.056455 -1.661503,-0.1025292 -1.740601,-0.1023856 -0.0791,1.428e-4 -0.590774,-4.33e-4 -1.137055,-0.00128 -0.546283,-8.457e-4 -1.0382062,-2.365e-4 -1.0931618,0.00135 -0.054955,0.00159 -0.2362403,0.00164 -0.4028545,9.93e-5 -0.4496787,-0.00415 -0.6479778,0.00565 -2.2853066,0.1128874 l -1.4980227,0.098113 -1.6664579,0.2172953 c -0.9165519,0.1195122 -1.8057784,0.2404441 -1.97606,0.2687366 l -0.3096012,0.051441 -0.657815,0.1961405 -0.65781402,0.1961403 -0.5524439,0.3431933 -0.55244491,0.3431937 -0.45130597,0.4759936 -0.451307,0.47599381 -0.3132726,0.56593142 -0.3132697,0.56593059 -0.062992,0.26023118 c -0.034648,0.14312779 -0.068976,0.2813125 -0.076284,0.3070776 -0.00731,0.025765 -0.048936,0.1991654 -0.092502,0.3853331 L -2.5652612,1.8777909 -2.82668,4.2235913 c -0.1437792,1.2901906 -0.2627598,2.3785467 -0.2644013,2.4185698 -0.00164,0.040024 -0.01052,0.1460811 -0.019732,0.2356829 -0.00921,0.089602 -0.018647,0.1958129 -0.020967,0.236025 -0.00232,0.040211 -0.011545,0.1463639 -0.020498,0.235894 -0.00895,0.089531 -0.025265,0.2712945 -0.036249,0.4039183 -0.010984,0.1326249 -0.03097,0.2565075 -0.044412,0.2752963 l -0.024445,0.034161 -0.3888731,-0.00137 c -0.2138807,-7.569e-4 -0.6088696,-8.315e-4 -0.8777525,-1.67e-4 -0.2688837,6.657e-4 -0.6054741,0.00104 -0.7479796,8.29e-4 -0.1425057,-2.096e-4 -0.3561066,4.36e-5 -0.4746699,5.613e-4 -0.1185622,5.174e-4 -0.2740459,2.05e-4 -0.3455194,-6.946e-4 -0.071473,-8.999e-4 -0.2591287,-4.816e-4 -0.4170119,9.299e-4 -0.1578844,0.00141 -0.3456043,0.0016 -0.4171549,4.171e-4 -0.071551,-0.00118 -0.2593542,-0.0013 -0.4173413,-2.557e-4 -0.2965109,0.00195 -0.9016701,0.00227 -1.5522861,8.249e-4 -0.2050826,-4.58e-4 -0.3801054,-0.00492 -0.3889401,-0.00993 -0.00884,-0.005 -0.016315,-0.2795363 -0.016625,-0.6100748 l -5.629e-4,-0.6009798 -0.023113,-0.04705 -0.023113,-0.047051 -0.1598933,-0.00649 c -0.2828793,-0.011477 -1.1244767,-0.017701 -1.7444207,-0.0129 -0.331662,0.00257 -0.861619,0.00613 -1.177671,0.00792 l -0.574647,0.00326 -0.03124,0.069034 c -0.01719,0.037971 -0.02592,0.088251 -0.01941,0.1117361 0.0065,0.023485 0.01088,0.2506973 0.0097,0.5049143 -0.0021,0.4664025 -0.0026,0.8624035 -0.0021,1.7572037 1.32e-4,0.2690304 3.15e-4,0.6509985 3.91e-4,0.848821 8.6e-5,0.19782 4.97e-4,0.456702 9.06e-4,0.575294 4.2e-4,0.11859 5.43e-4,0.299852 2.86e-4,0.402802 -2.57e-4,0.102951 -7.3e-5,0.284196 4.18e-4,0.402767 0.0013,0.308928 0.0021,0.97381 0.0019,1.524662 -8.5e-5,0.261178 -2.6e-5,0.656129 1.36e-4,0.877669 3.09e-4,0.423189 6.97e-4,1.135287 9.46e-4,1.740763 8.6e-5,0.19782 4.86e-4,0.456704 9.06e-4,0.575294 4.2e-4,0.11859 5.03e-4,0.299863 1.85e-4,0.40283 -5.53e-4,0.184279 -3.29e-4,0.337626 0.0016,1.078703 0.0015,0.565171 9.09e-4,1.275946 -0.0014,1.734157 l -0.0021,0.410587 0.02576,0.11267 0.02576,0.112671 0.129342,-5.92e-4 c 0.07113,-3.23e-4 0.252085,-0.0016 0.402111,-0.0028 0.150036,-0.0012 0.403032,5.29e-4 0.562219,0.0038 0.272244,0.0056 0.667,0.0053 1.9948635,-0.0015 l 0.5556258,-0.0029 0.027251,-0.04813 0.027251,-0.04813 0.00129,-0.603783 0.00128,-0.60378 0.065811,-0.01171 c 0.063138,-0.01123 0.1266459,-0.01233 0.641526,-0.01111 0.1266962,3.02e-4 0.3144151,1.14e-4 0.4171486,-4.16e-4 0.1027335,-5.3e-4 0.2904524,-7.18e-4 0.417159,-4.18e-4 0.1267063,2.98e-4 0.3143779,-6e-5 0.4170437,-7.96e-4 0.1026756,-7.39e-4 0.2903475,-0.0011 0.4170558,-7.98e-4 0.1267033,2.99e-4 0.3144222,1.12e-4 0.4171547,-4.18e-4 0.1027315,-5.3e-4 0.2904746,-6.34e-4 0.4172062,-2.32e-4 0.2509617,7.96e-4 0.5514559,4.85e-4 0.8990323,-9.29e-4 0.1225242,-4.99e-4 0.2812502,-1.71e-4 0.3527227,7.29e-4 0.071474,9e-4 0.2591287,4.82e-4 0.4170129,-9.3e-4 0.1578844,-0.0014 0.3456033,-0.0016 0.4171549,-4.17e-4 0.07155,0.0012 0.2592529,9.3e-4 0.4171164,-5.56e-4 0.1578621,-0.0015 0.3041556,-0.0022 0.3250948,-0.0016 l 0.03807,0.0011 0.0173,0.132115 c 0.00951,0.07267 0.034774,0.334473 0.056134,0.581798 0.047355,0.548331 0.108175,1.135806 0.1694304,1.636547 0.025281,0.20667 0.045471,0.397175 0.044866,0.423344 -0.00105,0.04558 0.044595,0.448684 0.1180378,1.042347 0.018932,0.153032 0.043431,0.379344 0.05444,0.502914 0.011009,0.123572 0.039242,0.394174 0.062739,0.601337 0.023497,0.207164 0.059032,0.527542 0.078967,0.711951 0.043701,0.404281 0.1372961,0.873146 0.2858268,1.431857 l 0.1104985,0.41565 0.1512678,0.274454 c 0.083197,0.150946 0.2058118,0.375892 0.2724785,0.499877 0.1586901,0.295132 0.2443007,0.416496 0.3990825,0.565744 0.1291822,0.124566 0.2048241,0.204381 0.41044461,0.433099 0.16456804,0.183054 0.3395027,0.333402 0.50646678,0.435285 0.0802833,0.04899 0.32146584,0.195868 0.53596067,0.326395 l 0.38999126,0.237323 0.37164894,0.109801 c 0.91399904,0.270031 0.89196344,0.264749 1.51368664,0.362868 0.1117194,0.01763 0.2271113,0.03748 0.2564267,0.04409 0.029318,0.0066 0.064657,0.0089 0.078531,0.0051 0.013875,-0.0038 0.1131709,0.0075 0.2206644,0.02522 0.1074911,0.01771 0.2021591,0.03035 0.2103698,0.02807 0.00821,-0.0023 0.092962,0.0074 0.1883329,0.02143 0.09537,0.01406 0.2069597,0.02984 0.2479776,0.03508 0.1112107,0.01419 0.2407367,0.03194 0.3634754,0.04983 0.06022,0.0088 0.1163359,0.01406 0.1247042,0.01174 0.00836,-0.0023 0.093245,0.0073 0.1886158,0.02135 0.095371,0.01406 0.2069596,0.02984 0.2479775,0.03507 0.1112108,0.01419 0.240737,0.03195 0.3634755,0.04983 0.060221,0.0088 0.1163359,0.01406 0.1247041,0.01174 0.00836,-0.0023 0.093245,0.0073 0.1886158,0.02135 0.095371,0.01406 0.2069599,0.02984 0.2479788,0.03508 0.041017,0.0052 0.1150721,0.01545 0.1645657,0.02272 0.1455235,0.02136 0.9385398,0.07388 1.4364347,0.09514 l 0.3203362,0.01367 0.024919,0.02276 0.024918,0.02276 -0.00105,0.204836 c -5.789e-4,0.11266 3.274e-4,0.269201 0.00201,0.347872 0.00255,0.118949 0.00288,0.85115 8.226e-4,1.841516 -2.298e-4,0.110857 7e-5,0.276681 6.683e-4,0.368495 l 0.00109,0.166936 0.034686,0.01964 c 0.019074,0.0108 0.077925,0.01809 0.1307739,0.0162 0.052851,-0.0019 0.1997814,-0.0031 0.3265146,-0.0027 0.5034864,0.0016 0.6436763,0.0016 0.8920457,-1.77e-4 0.1421675,-10e-4 0.3299459,-9.88e-4 0.417285,5.3e-5 0.08734,10e-4 0.2233347,0.0011 0.3022123,1.82e-4 0.078877,-9.39e-4 0.2211973,-0.0014 0.3162663,-10e-4 0.2469417,9.8e-4 0.3653227,5.64e-4 0.4358817,-0.0015 l 0.0617,-0.0018 0.01486,-0.06607 c 0.01333,-0.05925 0.02132,-0.490573 0.01434,-0.774033 -0.0015,-0.05953 -0.0024,-0.205441 -0.0021,-0.324237 3.21e-4,-0.118795 1.45e-4,-0.306517 -3.96e-4,-0.41716 -5.4e-4,-0.110643 1.9e-5,-0.340177 0.0012,-0.510074 0.0012,-0.169897 10e-4,-0.357612 -4.39e-4,-0.417147 -0.0015,-0.05954 -0.0024,-0.205442 -0.0021,-0.324237 5.74e-4,-0.210751 4.05e-4,-0.377564 -9.09e-4,-0.906232 -3.54e-4,-0.14235 -4.34e-4,-0.308246 -1.78e-4,-0.368659 l 4.67e-4,-0.109843 -0.03465,-0.01962 c -0.01906,-0.01079 -0.07798,-0.01841 -0.130946,-0.01692 -0.112905,0.0032 -0.7925012,0.0033 -0.9603276,1.28e-4 -0.063638,-0.0012 -0.7883807,-0.04495 -1.6105396,-0.09724 L 6.0720141,28.456027 4.6157059,28.266166 C 3.814739,28.161743 3.0213301,28.054289 2.8525789,28.027383 L 2.5457592,27.978461 1.9757513,27.808321 1.4057423,27.638182 1.0268659,27.406699 C 0.81848302,27.279382 0.57259809,27.124871 0.48045509,27.063338 L 0.31292104,26.951459 0.15567299,26.779179 c -0.411276,-0.450593 -0.48389361,-0.527695 -0.52193101,-0.554163 l -0.0408711,-0.02844 -0.29380668,-0.535022 -0.29380752,-0.535025 -0.13870598,-0.565909 -0.138707,-0.565909 -0.063375,-0.586771 c -0.034855,-0.322725 -0.088257,-0.812976 -0.1186688,-1.089449 -0.030413,-0.276472 -0.084834,-0.772917 -0.1209354,-1.10321 -0.036102,-0.330293 -0.092045,-0.839266 -0.1243169,-1.131052 -0.055419,-0.501064 -0.084089,-0.801437 -0.1619014,-1.696187 -0.018144,-0.208646 -0.048282,-0.549943 -0.066971,-0.758439 -0.042026,-0.468822 -0.08551,-1.225968 -0.1081869,-1.883726 -0.00216,-0.06271 -0.00764,-0.197166 -0.012176,-0.298789 -0.034193,-0.76641 -0.038315,-0.913022 -0.039329,-1.399194 -3.124e-4,-0.150274 -7.308e-4,-0.33793 -9.252e-4,-0.417015 -0.00129,-0.525339 -0.00128,-0.69191 6.55e-5,-0.935278 8.339e-4,-0.150592 -3.48e-4,-0.325087 -0.00263,-0.387766 -0.00228,-0.06268 0.00187,-0.2257 0.00922,-0.362269 0.00735,-0.136569 0.024147,-0.523239 0.037332,-0.859268 0.03174,-0.808833 0.065092,-1.4427984 0.088338,-1.6791565 0.010401,-0.1057598 0.026148,-0.2978916 0.034991,-0.426961 0.00885,-0.12907 0.022584,-0.3012214 0.030533,-0.3825597 0.00795,-0.081339 0.026413,-0.3001239 0.041031,-0.4861886 0.014618,-0.1860647 0.031424,-0.3849645 0.037346,-0.4420016 0.00592,-0.057035 0.046648,-0.4503323 0.090501,-0.8739926 0.098243,-0.9490656 0.2544263,-2.3994524 0.3625316,-3.3666176 l 0.081322,-0.727565 0.1344761,-0.5552325 0.1344761,-0.5552325 0.28510778,-0.5278373 0.28510877,-0.52783751 0.29250262,-0.30839184 C 0.01418739,0.05710884 0.1723159,-0.1112566 0.20470994,-0.14742109 c 0.0999616,-0.11160599 0.21341348,-0.1978089 0.44409174,-0.33742776 0.1219975,-0.0738396 0.32082253,-0.19819052 0.44183012,-0.27633493 l 0.220016,-0.14208145 0.622587,-0.19249707 0.622587,-0.192497 0.2761764,-0.041875 c 0.1518955,-0.023032 0.9383352,-0.1291776 1.7476426,-0.2358806 l 1.4714669,-0.1940032 0.9609514,-0.063101 c 1.9996314,-0.1313027 2.1782913,-0.1422597 2.2495843,-0.1379666 0.04024,0.00242 0.1571093,0.00359 0.2597109,0.00258 0.1026005,-0.001 0.2448601,-0.00168 0.3161322,-0.00151 0.071271,1.726e-4 0.1878555,3.042e-4 0.2590765,2.916e-4 0.07122,-1.22e-5 0.187836,2.355e-4 0.259147,5.503e-4 0.175813,7.764e-4 0.4502,5.282e-4 0.589786,-5.332e-4 0.06318,-4.812e-4 0.173212,-6.167e-4 0.244523,-3.017e-4 0.117221,5.176e-4 0.244387,5.672e-4 0.589997,2.273e-4 0.199492,-1.963e-4 1.283714,0.059701 2.060318,0.1138226 0.234016,0.016308 0.530176,0.033609 0.658136,0.038444 0.245388,0.00927 0.450399,0.028714 0.753609,0.07146 0.05765,0.00813 0.171407,0.021436 0.252798,0.029575 0.08139,0.00814 0.229022,0.026856 0.328068,0.041592 0.249459,0.037116 0.283583,0.041918 0.41922,0.058995 0.0656,0.00826 0.146131,0.018499 0.178966,0.022756 0.03283,0.00426 0.126859,0.016453 0.208946,0.027103 0.180493,0.023419 0.269933,0.03491 0.387908,0.049843 0.103473,0.013097 0.19645,0.025652 0.343795,0.046425 0.05765,0.00813 0.176944,0.021951 0.265103,0.030719 0.155262,0.015443 0.534303,0.075257 0.815555,0.1286994 0.07548,0.014344 0.378403,0.097977 0.673153,0.1858527 l 0.535913,0.15977279 0.511555,0.31735181 0.511555,0.31735311 0.08371,0.086543 c 0.443995,0.45898424 0.76342,0.80947304 0.775416,0.85082383 0.0053,0.0177789 0.114409,0.22064357 0.242765,0.45075936 l 0.233373,0.4183925 0.119647,0.4416906 c 0.158797,0.5861657 0.231821,1.0281968 0.32051,1.9400341 0.04109,0.4224045 0.133489,1.2673033 0.200086,1.8294991 0.02269,0.1915595 0.05081,0.4557164 0.06249,0.5870165 0.01168,0.1312994 0.03967,0.3907625 0.0622,0.5765841 0.02253,0.1858229 0.04572,0.4060223 0.05152,0.4893333 0.0058,0.083311 0.03035,0.3661385 0.05455,0.6285056 0.02419,0.2623684 0.05719,0.641722 0.07333,0.84301 0.01614,0.2012878 0.03973,0.4666985 0.05244,0.589801 0.02977,0.2885403 0.126963,2.498322 0.131303,2.985249 0.0018,0.205251 0.0029,0.554606 0.0023,0.776344 -5.55e-4,0.221738 -0.0016,0.662329 -0.0024,0.97909 -7.66e-4,0.316762 -0.01009,0.746686 -0.02072,0.95539 -0.01063,0.208701 -0.02991,0.654331 -0.04283,0.990286 -0.03306,0.859495 -0.03599,0.906117 -0.10144,1.610842 -0.01056,0.113717 -0.02114,0.239671 -0.02352,0.279896 -0.0024,0.04023 -0.01307,0.166211 -0.02376,0.279966 -0.0107,0.113754 -0.02622,0.292876 -0.03451,0.39805 -0.0083,0.105174 -0.02222,0.26443 -0.03096,0.353902 -0.0087,0.08947 -0.01706,0.195375 -0.01849,0.235338 -0.0014,0.03996 -0.0528,0.533333 -0.114181,1.09638 -0.157152,1.441607 -0.304126,2.801218 -0.347942,3.218691 l -0.03733,0.355665 -0.133887,0.568975 -0.133886,0.568977 -0.327784,0.582905 -0.327785,0.582902 -0.167849,0.173251 c -0.09232,0.09529 -0.187849,0.194554 -0.212292,0.220596 -0.02444,0.02604 -0.06498,0.06673 -0.09007,0.09042 -0.02509,0.02369 -0.0752,0.07656 -0.111349,0.117487 -0.09927,0.112387 -0.205215,0.195286 -0.423787,0.331579 -0.109087,0.06803 -0.319619,0.200128 -0.467845,0.293564 l -0.269504,0.169877 -0.708052,0.196958 -0.708052,0.196958 -0.360851,0.04785 c -0.567285,0.07523 -1.867103,0.244923 -2.416263,0.315443 l -0.500201,0.06424 -1.413053,0.0932 c -1.514367,0.09988 -1.678507,0.107538 -2.224128,0.103743 -0.194835,-0.0014 -0.404122,0.0027 -0.465083,0.009 l -0.11084,0.01143 -3.12e-4,0.03858 c -9.77e-4,0.121009 -2.18e-4,0.87524 0.0012,1.232403 9.38e-4,0.229239 0.0014,0.507523 0.0011,0.618409 -3.32e-4,0.110885 3.27e-4,0.291998 0.0015,0.402475 0.002,0.189978 0.0017,0.491054 -0.0011,1.252124 -6.77e-4,0.182203 0.0016,0.407173 0.0051,0.499935 l 0.0063,0.168655 0.02571,0.01193 c 0.02368,0.011 0.322163,0.0165 0.745637,0.01375 0.09479,-6.18e-4 0.28258,-5.65e-4 0.417303,1.16e-4 0.733799,0.0037 0.677337,0.01353 0.690356,-0.119983 z"
       id="path7311"
       inkscape:label="medium-outer" /><g
       id="g1677"
       style="fill:#cccccc"><path
         style="fill:#cccccc;stroke-width:0.0277334"
         d="m -9.4629397,8.0736674 -0.022005,-0.012461 -0.046116,-0.2278298 -0.046116,-0.2278297 -0.043004,-0.029923 C -9.6438347,7.559166 -9.7121531,7.4712946 -9.772001,7.3803552 l -0.1088143,-0.1653451 -0.5466457,4.383e-4 c -0.300657,2.405e-4 -0.762772,1.724e-4 -1.02692,-1.524e-4 l -0.480262,-5.929e-4 -0.02009,-0.027373 c -0.01102,-0.015062 -0.02141,-0.097736 -0.02305,-0.1837294 l -0.003,-0.1563557 0.02292,-0.024744 0.02291,-0.02474 0.145446,-0.013291 c 0.211015,-0.019281 1.330828,-0.015286 1.488737,0.00531 0.07389,0.00964 0.3123565,0.017348 0.5299247,0.017128 0.2175674,-2.184e-4 0.3972766,0.00732 0.3993542,0.016756 0.00207,0.00943 0.00368,0.2891258 0.00356,0.6215351 l -2.124e-4,0.6043813 -0.036414,0.018275 c -0.020028,0.01005 -0.046332,0.012614 -0.05842,0.00581 z"
         id="path7305" /><path
         style="fill:#cccccc;stroke-width:0.0277334"
         d="m -7.6249576,17.750623 c -2.3108919,-2.59e-4 -4.2225714,0.0031 -4.2481834,0.0074 l -0.04657,0.0079 -0.03109,-0.0548 -0.03109,-0.0548 0.01363,-0.25811 c 0.0075,-0.141958 0.0118,-0.425952 0.0096,-0.631096 -0.0022,-0.205142 -0.0029,-0.470434 -0.0014,-0.589534 0.0014,-0.119098 0.0013,-0.306848 -1.89e-4,-0.417217 -0.0015,-0.11037 -0.0017,-0.298089 -4.21e-4,-0.417154 0.0013,-0.119066 10e-4,-0.306768 -5.42e-4,-0.41712 -0.0016,-0.110351 -0.0027,-0.369031 -0.0025,-0.574844 2.02e-4,-0.205813 4.33e-4,-0.445449 4.99e-4,-0.532518 7.6e-5,-0.08707 0.0014,-0.242847 0.003,-0.346166 0.0016,-0.10332 7.96e-4,-0.310296 -0.0018,-0.459942 -0.0026,-0.149649 -0.003,-0.408992 -9.28e-4,-0.576317 0.0021,-0.167325 0.0025,-0.407016 9.53e-4,-0.532643 -0.0015,-0.125631 -0.0028,-0.293157 -0.0029,-0.372283 -4e-5,-0.07913 -3.45e-4,-0.266814 -6.63e-4,-0.417086 -3.19e-4,-0.150273 -5.18e-4,-0.357414 -4.43e-4,-0.460314 1.52e-4,-0.190361 1.9e-5,-0.441957 -4.76e-4,-0.9063516 -1.52e-4,-0.1424056 -0.006,-0.3479267 -0.01311,-0.4567127 l -0.01283,-0.1977957 0.03641,-0.064307 0.03642,-0.064311 4.2966213,-0.00356 4.2966248,-0.00356 0.02801,0.025502 0.02801,0.025502 -8.427e-4,0.057788 c -4.646e-4,0.031783 -0.00676,0.0918 -0.013991,0.1333717 l -0.013149,0.075585 -0.039769,0.00784 c -0.021875,0.00431 -1.5726208,0.00892 -3.4461038,0.010238 l -3.4063286,0.0024 -0.01507,0.027427 c -0.01366,0.024883 -0.01245,7.8969633 0.0012,8.0191723 l 0.0058,0.05212 0.04673,0.01288 c 0.03775,0.0104 6.8002871,0.01223 6.8377815,0.0018 0.021155,-0.0059 0.054231,0.154907 0.047248,0.229649 l -0.00708,0.07578 -0.074774,0.01833 c -0.041128,0.01007 -1.9655014,0.01811 -4.2763843,0.01785 z"
         id="path7303" /><path
         style="fill:#cccccc;stroke-width:0.0277334"
         d="m -9.7741026,19.913845 c -0.1663086,-4.21e-4 -0.4178034,0.0065 -0.5588824,0.01537 -0.342749,0.02156 -1.277987,0.02174 -1.472778,2.79e-4 l -0.155839,-0.01717 -0.0089,-0.03223 c -0.01685,-0.06086 0.0068,-0.302286 0.0334,-0.340472 l 0.02658,-0.0382 0.989373,-5.6e-4 c 0.54415,-3.09e-4 1.0085822,-0.0058 1.032061,-0.01215 l 0.042685,-0.0116 0.034989,-0.0716 c 0.019254,-0.03938 0.079737,-0.120445 0.1344331,-0.180147 l 0.099434,-0.108547 0.053082,-0.223999 0.053072,-0.223997 0.044301,-0.02187 0.044301,-0.02187 0.010805,0.03509 c 0.00539,0.01945 0.011088,0.303719 0.011819,0.631938 l 0.00132,0.596763 -0.056277,0.01283 c -0.030957,0.0071 -0.1923505,0.01249 -0.358649,0.01206 z"
         id="path7301" /></g></g><g
     inkscape:groupmode="layer"
     id="layer2"
     inkscape:label="small"
     style="display:none"><path
       id="path7393"
       style="fill:#ff00ff;stroke-width:0.0236887"
       d="M 17.346188,8.4395632 C 17.293144,7.3226339 17.219253,6.4232098 17.051134,4.8480407 17.003247,4.3993685 16.951564,3.9045666 16.936282,3.7484809 16.921002,3.592395 16.896103,3.3583037 16.880954,3.2282776 16.865804,3.0982509 16.832903,2.7896777 16.807842,2.542559 16.782781,2.2954384 16.743355,1.9496719 16.720228,1.7741871 L 16.678178,1.4551235 16.626928,1.26713 c -0.15137,-0.55520193 -0.346296,-0.9336308 -0.70133,-1.36157385 l -0.174189,-0.20995779 -0.152615,-0.12806774 c -0.261048,-0.21905546 -0.458121,-0.35933491 -0.644548,-0.45879463 -0.09872,-0.0526712 -0.195664,-0.10488457 -0.215421,-0.11602809 -0.07709,-0.043489 -0.4749,-0.1770572 -0.655699,-0.2201552 -0.565426,-0.1347898 -2.267169,-0.3618432 -3.37287,-0.4500201 -2.0010159,-0.1595783 -3.7067162,-0.1557078 -5.7926774,0.013142 -0.5856467,0.047406 -0.6636662,0.055058 -1.0583045,0.103789 -0.1202589,0.014852 -0.3170501,0.038904 -0.4373146,0.053453 -0.4585222,0.055465 -1.6460957,0.2489769 -1.9038295,0.3102192 -0.2370269,0.056327 -0.4890652,0.1576598 -0.80592182,0.32403034 -0.55690708,0.29241065 -0.91403169,0.62330299 -1.29048591,1.19568896 l -0.13411268,0.20391481 -0.0942104,0.22699155 C -0.85841815,0.87860582 -0.93169554,1.0878902 -0.96943883,1.218839 l -0.0686256,0.238086 -0.03242,0.2375394 c -0.029262,0.2143919 -0.3857523,3.770024 -0.4593335,4.5813854 -0.077811,0.8580027 -0.1333493,1.78734 -0.1651413,2.7633367 l -0.025097,0.7704931 0.01983,1.1961194 0.019831,1.196121 0.029518,0.556228 c 0.016234,0.305926 0.034138,0.577466 0.039786,0.603421 0.00565,0.02596 0.019834,0.217602 0.031526,0.42588 0.011694,0.208278 0.040493,0.570238 0.064001,0.804355 0.1109338,1.104732 0.1336997,1.326975 0.1732018,1.690785 0.023299,0.214575 0.055433,0.523163 0.071411,0.685751 0.015977,0.162588 0.0419,0.407322 0.057608,0.543853 0.015707,0.136531 0.055071,0.514285 0.087476,0.839453 0.032405,0.325168 0.077925,0.713468 0.1011544,0.862888 l 0.0422352,0.271674 0.0635001,0.223888 0.0635001,0.223887 0.0972767,0.217351 c 0.12003184,0.268195 0.27813598,0.522415 0.47697691,0.766943 l 0.15180512,0.186686 0.21037272,0.185582 c 0.23080772,0.203611 0.40883865,0.338449 0.53782166,0.407341 0.0460728,0.02461 0.12688432,0.06967 0.17958273,0.100139 0.0526975,0.03047 0.12269458,0.0674 0.15554902,0.08206 0.0559995,0.025 0.0865864,0.03686 0.22077157,0.08564 0.029522,0.01073 0.080543,0.03079 0.1133809,0.04458 0.1471498,0.06179 0.6631196,0.163366 1.2249024,0.24115 0.1568786,0.02172 0.3386699,0.05044 0.4039806,0.06381 0.065311,0.01337 0.273665,0.04142 0.4630094,0.06232 0.1893444,0.0209 0.50988,0.05702 0.7122992,0.08027 0.493336,0.05666 1.0208884,0.09926 1.8983224,0.153315 0.1630782,0.01005 0.5951628,0.02495 0.9601872,0.03312 l 0.663682,0.01486 1.2787085,-0.03775 1.2787086,-0.03774 0.295611,-0.02926 c 0.162587,-0.01609 0.460595,-0.0438 0.662243,-0.06157 0.201648,-0.01777 0.457036,-0.0441 0.567529,-0.05851 0.110494,-0.0144 0.360453,-0.04599 0.555463,-0.0702 0.195011,-0.0242 0.657464,-0.09246 1.027674,-0.151686 l 0.673106,-0.107678 0.235895,-0.06112 c 0.12974,-0.03362 0.322326,-0.09485 0.42797,-0.13607 l 0.192077,-0.07495 0.207002,-0.121673 c 0.253816,-0.14919 0.493111,-0.322478 0.633558,-0.4588 0.05818,-0.05648 0.113413,-0.102831 0.122728,-0.103006 0.0093,-1.54e-4 0.09445,-0.09507 0.189189,-0.210874 0.183982,-0.224887 0.404435,-0.564562 0.455343,-0.70159 0.01706,-0.04593 0.05451,-0.126599 0.08323,-0.179264 0.161495,-0.296224 0.251475,-0.749629 0.344527,-1.73607 0.01724,-0.182761 0.03935,-0.412406 0.04914,-0.510324 0.0098,-0.09792 0.03224,-0.322238 0.04988,-0.49849 0.01765,-0.176253 0.03997,-0.400571 0.0496,-0.498486 0.01563,-0.158847 0.03736,-0.376199 0.100855,-1.008849 0.173188,-1.725547 0.248179,-2.816894 0.277941,-4.044879 0.0081,-0.332445 0.01885,-0.775114 0.02398,-0.983708 0.01039,-0.422605 -0.01465,-1.5881249 -0.05022,-2.3370598 z M 15.667183,2.59957 c -6.51e-4,0.4399452 0.02603,11.044513 0.03577,14.215093 0.0038,1.231369 0.0031,2.32378 -0.0016,2.42758 l -0.0085,0.188726 -0.06139,0.132443 c -0.08829,0.190506 -0.180251,0.33411 -0.366121,0.571753 l -0.163636,0.209217 -0.161361,0.146891 c -0.08875,0.08079 -0.232054,0.198825 -0.318451,0.262299 l -0.157091,0.115408 -0.530387,0.0077 c -0.291712,0.0042 -1.051598,0.0079 -1.688633,0.0082 -0.637037,2.62e-4 -3.3491097,0.008 -6.026831,0.01727 -2.6777212,0.0092 -4.8914228,0.01294 -4.9193362,0.0082 L 1.2489306,20.90178 1.0719765,20.770942 C 0.632427,20.445942 0.29156918,20.035713 0.08621117,19.584555 L 0.01136089,19.420114 0.01337364,19.076528 C 0.01448111,18.887556 0.01391252,18.32249 0.0121151,17.820826 0.01031769,17.319162 0.00823188,16.620851 0.007475,16.269025 0.00513382,15.17859 0.00279146,14.167182 8.5985444e-4,13.41415 -0.00221511,12.217134 -0.00454632,11.261317 -0.00620317,10.523744 -0.00835826,9.5656781 -0.01092123,8.5202777 -0.01327148,7.6451851 -0.01677156,6.3422032 -0.01903723,5.409431 -0.02032294,4.7429324 -0.02269226,3.5157607 -0.02618526,2.3381334 -0.02876353,1.8983573 L -0.03134408,1.4585078 0.07604585,1.2471352 C 0.20326927,0.99672247 0.33372162,0.80383754 0.52960941,0.57650768 L 0.67308881,0.40999406 0.85148309,0.26208256 C 0.94959885,0.18072942 1.073905,0.08451052 1.1277181,0.04826181 l 0.097842,-0.06591015 6.3925069,-0.01468079 c 3.51588,-0.0080735 6.473445,-0.01609934 6.572366,-0.01783689 l 0.179859,-0.0031185 0.143486,0.09247799 c 0.07891,0.05086108 0.214033,0.14847327 0.300264,0.2169142 l 0.156783,0.12443618 0.166156,0.2067021 c 0.184695,0.22976567 0.363287,0.49692535 0.451353,0.67519085 l 0.05798,0.1173734 0.01072,0.4262711 c 0.0059,0.2344501 0.01051,0.5915343 0.01016,0.7935227 z"
       inkscape:label="small-inner" /><path
       style="fill:#00ffff;stroke-width:0.0236887"
       d="m 18.966434,8.863847 c -0.01919,-0.631648 -0.04038,-1.2176492 -0.04709,-1.3022252 -0.0067,-0.084576 -0.0214,-0.302867 -0.03264,-0.485091 -0.01124,-0.1822241 -0.03358,-0.4803346 -0.04964,-0.662468 -0.01606,-0.1821333 -0.04334,-0.4908127 -0.06063,-0.6859539 -0.03109,-0.3509682 -0.119589,-1.19125 -0.231601,-2.1990839 -0.03179,-0.2860861 -0.07649,-0.7010555 -0.09933,-0.9221548 -0.159655,-1.5458268 -0.258879,-2.28668455 -0.33077,-2.46968676 -0.01779,-0.04527328 -0.04652,-0.14019589 -0.06386,-0.21093853 -0.01733,-0.07074355 -0.05887,-0.18724178 -0.0923,-0.25888535 -0.03343,-0.0716436 -0.08239,-0.17783276 -0.108791,-0.23597637 -0.05916,-0.13026637 -0.0763,-0.16050947 -0.227976,-0.40222251 -0.146195,-0.23297278 -0.351465,-0.48565638 -0.58153,-0.71584748 l -0.170444,-0.1705347 -0.238838,-0.1753885 -0.238841,-0.1753866 -0.240731,-0.1281568 -0.240736,-0.1281549 -0.274431,-0.104234 -0.274431,-0.1042339 -0.261695,-0.056981 c -0.754158,-0.1642079 -2.692695,-0.4178236 -3.96649,-0.5189279 -0.87337,-0.06932 -1.8754048,-0.1131304 -2.8929208,-0.1264772 l -0.8768546,-0.011504 -0.6984097,0.028316 c -0.8360331,0.033896 -1.6692638,0.082866 -2.1063414,0.1237926 -0.1756106,0.016443 -0.436409,0.038563 -0.5795517,0.049155 -0.2652296,0.019626 -1.4447112,0.1605612 -1.7552531,0.2097352 -0.094195,0.014915 -0.2430155,0.038571 -0.3307112,0.052571 -0.087697,0.013999 -0.356127,0.055472 -0.5965124,0.092163 -0.2403854,0.036692 -0.54855195,0.091196 -0.68481514,0.1211211 l -0.2477512,0.054407 -0.31767562,0.1158107 c -0.17472118,0.063697 -0.33341323,0.1293143 -0.35264886,0.1458208 -0.0192357,0.016504 -0.12471915,0.076796 -0.23440709,0.1339823 -0.10968794,0.057184 -0.29936551,0.1759405 -0.42150531,0.2639019 l -0.22207238,0.1599278 -0.2672102,0.2793139 -0.2672112,0.2793121 -0.1975207,0.29940645 -0.1975216,0.29940466 -0.03934,0.10735935 c -0.021636,0.0590474 -0.068863,0.16253404 -0.1049483,0.22997087 l -0.065608,0.12261421 -0.077457,0.273974 c -0.042601,0.15068779 -0.097443,0.39030126 -0.1218712,0.53247278 l -0.044414,0.2584979 -0.2204894,2.16020838 c -0.121269,1.1881144 -0.2254622,2.1750198 -0.2315405,2.1931243 l -0.01105,0.032916 -0.6215659,-0.00368 c -0.3418617,-0.00202 -1.6503744,-5.623e-4 -2.9078059,0.00324 -1.2574306,0.00381 -2.301179,0.00208 -2.3194409,-0.00384 l -0.033202,-0.010759 -0.00284,-0.6450248 -0.00284,-0.645025 -0.5569265,-0.00757 c -0.3063097,-0.00416 -1.1253832,5.485e-4 -1.8201622,0.010467 l -1.263238,0.018032 -0.01809,0.024138 -0.01809,0.02414 0.0068,2.4520909 c 0.0082,2.9350698 0.01581,6.1341389 0.02066,8.6712279 l 0.0036,1.859829 0.01487,0.01455 0.01487,0.01455 0.948113,0.02096 0.948112,0.02096 0.8711438,-0.01673 0.871144,-0.01673 0.00902,-0.02979 c 0.00496,-0.01638 0.00832,-0.304547 0.00746,-0.640369 l -0.00155,-0.610583 0.014351,-0.0149 0.014353,-0.0149 2.7073681,-0.01037 c 1.4890519,-0.0057 2.8087539,-0.0051 2.932672,0.0014 l 0.2253048,0.01178 0.0073,0.07094 c 0.012752,0.123866 0.092048,0.856002 0.1523732,1.406862 0.032042,0.292597 0.071071,0.659695 0.086733,0.815774 0.01566,0.156078 0.047416,0.448681 0.070568,0.650227 0.023152,0.201547 0.055333,0.499472 0.071512,0.662057 0.1138899,1.144479 0.1894928,1.492879 0.4454799,2.0529 0.145502,0.318314 0.3095598,0.574814 0.5839735,0.913032 l 0.1609401,0.19836 0.1895556,0.164466 c 0.23269228,0.201894 0.57975566,0.457875 0.68621657,0.506128 0.0434918,0.01971 0.13830319,0.06702 0.21069089,0.10513 0.29679441,0.15625 0.77947255,0.31309 1.20385793,0.391179 0.39458731,0.07261 1.71487431,0.260178 2.28062221,0.324005 0.1044711,0.01179 0.2594055,0.0298 0.3443009,0.04004 0.2092213,0.02523 0.4923235,0.05174 1.0551573,0.09882 0.2604614,0.02179 0.4785664,0.04443 0.4846782,0.05031 0.012122,0.01168 -0.095811,0.0178 -0.5295126,0.03005 l -0.2841636,0.008 1.517e-4,0.319853 c 9.2e-5,0.175918 6.908e-4,0.868925 0.00135,1.540015 l 0.0012,1.220164 0.03377,0.02547 0.033769,0.02547 1.2499594,-0.0061 c 0.6874785,-0.0033 1.3778887,-0.0068 1.5342458,-0.0076 l 0.2842873,-0.0015 0.012588,-0.142395 c 0.00693,-0.07832 0.01065,-0.62214 0.00828,-1.208496 -0.00237,-0.586356 -0.00426,-1.311325 -0.00421,-1.611041 1.484e-4,-0.861476 -0.00875,-1.526441 -0.020559,-1.537824 -0.00598,-0.0058 -0.2346855,-0.01752 -0.508242,-0.02614 C 5.8713883,22.756736 4.6163073,22.671233 3.990964,22.592403 3.8603427,22.575937 3.6252467,22.547437 3.4685273,22.52907 3.3118079,22.510702 3.0285512,22.472564 2.8390685,22.444319 2.6495858,22.416072 2.3341748,22.368965 2.1381557,22.339637 1.002,22.169642 0.3275801,21.824327 -0.31204135,21.085092 L -0.47341467,20.898586 -0.6208532,20.664432 c -0.0810916,-0.128784 -0.17227029,-0.292326 -0.2026213,-0.363426 -0.0303501,-0.0711 -0.06499,-0.150411 -0.0769765,-0.176248 -0.0965124,-0.208029 -0.2066358,-0.711399 -0.2581034,-1.179788 -0.035776,-0.325583 -0.3538784,-3.376442 -0.4203746,-4.031734 -0.1327462,-1.30814 -0.1824594,-2.173762 -0.2113613,-3.680274 l -0.02274,-1.184219 0.00903,-0.5009673 c 0.014612,-0.8108036 0.034404,-1.313232 0.076928,-1.9528701 0.00998,-0.1500456 0.026213,-0.400904 0.036083,-0.5574633 0.00987,-0.1565592 0.036232,-0.4769102 0.058583,-0.7118911 0.022351,-0.2349809 0.048765,-0.5180164 0.058696,-0.628968 0.00993,-0.1109514 0.027129,-0.2925262 0.038214,-0.4034994 0.011087,-0.1109732 0.029099,-0.2978941 0.040028,-0.41538 0.01093,-0.1174858 0.028596,-0.2937385 0.039258,-0.3916726 0.010663,-0.097934 0.028301,-0.2688553 0.039198,-0.379825 0.010896,-0.1109696 0.033487,-0.3352931 0.050202,-0.4984968 0.016714,-0.1632036 0.066501,-0.6623658 0.1106345,-1.1092466 0.110383,-1.1176935 0.1442467,-1.2982059 0.33350193,-1.77780696 l 0.0847757,-0.21483229 0.14028511,-0.22772421 c 0.16406825,-0.26633133 0.35445747,-0.50670431 0.5619789,-0.70952095 0.25393356,-0.24817735 0.37911451,-0.34295001 0.72126403,-0.54607037 l 0.1874477,-0.11127992 0.23696723,-0.092826 0.2369664,-0.092826 0.2576531,-0.062955 0.2576521,-0.062957 0.696925,-0.1071637 c 0.383309,-0.058943 0.8086159,-0.1208811 0.9451273,-0.1376444 0.1365096,-0.016764 0.397118,-0.049056 0.5791257,-0.071763 0.468356,-0.058422 1.2917158,-0.1269934 2.0738779,-0.1727172 l 0.6705138,-0.039195 0.9950067,-0.00516 0.9950068,-0.00516 0.5928263,0.026701 c 0.3260547,0.014688 0.8704461,0.048576 1.2097571,0.075306 0.839003,0.066096 0.954708,0.076458 1.269714,0.1136949 0.15019,0.017755 0.395945,0.046 0.546118,0.062768 0.150174,0.016767 0.380006,0.048783 0.510737,0.071147 0.130733,0.022363 0.285785,0.046582 0.344562,0.053822 0.234704,0.028904 0.64548,0.1006032 0.931554,0.1625988 l 0.301864,0.065415 0.232392,0.0895 c 0.127818,0.049223 0.250308,0.1051046 0.272204,0.1241832 0.0219,0.019079 0.05083,0.034481 0.06431,0.034227 0.01348,-2.718e-4 0.120854,0.0609709 0.238619,0.13605395 l 0.214118,0.13651627 0.223496,0.19287091 0.223496,0.19287001 0.162943,0.19832321 c 0.272653,0.33185695 0.511311,0.74899846 0.630312,1.10170304 0.01966,0.0582697 0.04658,0.13772701 0.05982,0.17657081 0.03652,0.1070958 0.124898,0.6478642 0.160209,0.9802414 0.01727,0.1625633 0.06364,0.6094872 0.103034,0.9931636 0.0394,0.3836765 0.08423,0.8093056 0.09962,0.9458425 0.05549,0.4922283 0.08828,0.8042489 0.160303,1.5251772 0.04028,0.4032064 0.07952,0.7916243 0.08719,0.863151 0.09182,0.8557357 0.159642,2.1721041 0.181697,3.5268281 l 0.01716,1.0540133 -0.01711,0.557106 c -0.03731,1.215411 -0.09805,2.241234 -0.191684,3.237695 -0.06545,0.696547 -0.424782,4.297826 -0.439357,4.403312 -0.05057,0.36608 -0.162994,0.774339 -0.288567,1.047921 -0.09066,0.197514 -0.08413,0.185001 -0.214883,0.411844 l -0.09266,0.160768 -0.164449,0.198353 c -0.09045,0.109095 -0.24437,0.273906 -0.34206,0.366246 l -0.177612,0.167894 -0.19886,0.134387 c -0.109373,0.07391 -0.225168,0.152827 -0.257321,0.175362 -0.144259,0.101106 -0.61811,0.298873 -0.824811,0.344244 -0.05728,0.01257 -0.183766,0.0413 -0.281076,0.06385 -0.09731,0.02254 -0.293868,0.05888 -0.436799,0.08075 -0.142931,0.02187 -0.414,0.06475 -0.602376,0.0953 -0.188377,0.03055 -0.448894,0.06755 -0.578929,0.08224 -0.130034,0.01469 -0.37582,0.04554 -0.546189,0.06855 -0.735223,0.09933 -2.4990738,0.226448 -3.3693061,0.242829 l -0.3729573,0.007 -0.00255,0.669374 c -0.00543,1.43011 0.00524,3.764299 0.017356,3.794165 l 0.012736,0.03141 0.4463008,0.0067 c 0.2454661,0.0037 0.7093058,0.0043 1.0307542,0.0013 l 0.5844534,-0.0054 0.0132,-0.0137 c 0.0073,-0.0075 0.01162,-0.370063 0.0097,-0.805613 -0.0063,-1.427047 -0.0038,-2.281528 0.0067,-2.299303 0.01305,-0.02204 0.155948,-0.0373 0.920505,-0.09835 0.736199,-0.05879 1.8343,-0.186086 2.565087,-0.297367 1.282795,-0.195337 1.529052,-0.246241 1.957923,-0.404729 l 0.246093,-0.09094 0.203353,-0.119732 c 0.111845,-0.06585 0.209978,-0.119858 0.218075,-0.12001 0.03197,-5.78e-4 0.474237,-0.328498 0.569617,-0.422315 0.520496,-0.511971 0.716793,-0.776768 0.964145,-1.300602 l 0.124166,-0.26296 0.09064,-0.308301 0.09064,-0.3083 0.0396,-0.274628 c 0.04029,-0.27938 0.05602,-0.420287 0.161852,-1.449732 0.03289,-0.319881 0.09165,-0.891395 0.130585,-1.27003 0.03893,-0.378636 0.102194,-0.982219 0.140578,-1.341298 0.182189,-1.704367 0.293088,-3.635221 0.304375,-5.299415 0.0017,-0.246694 0.0079,-0.453565 0.0138,-0.459711 0.0059,-0.0061 0.0044,-0.08684 -0.0034,-0.179321 -0.0077,-0.09248 -0.02974,-0.6849504 -0.04893,-1.3165985 z"
       id="path7379"
       inkscape:label="small-outer" /><path
       style="fill:#000000;stroke-width:0.0236887"
       d="m -8.9260079,16.64504 -0.00673,0.326069 -0.7458891,0.02334 -0.745887,0.02334 -0.513388,-0.007 -0.513388,-0.007 -0.03837,-0.03064 -0.03837,-0.03064 0.0029,-0.338369 0.0029,-0.338369 0.01573,-0.02655 0.01573,-0.02655 0.02313,0.0137 0.02313,0.0137 -0.01262,0.176032 -0.01262,0.176032 0.342839,-0.0065 c 0.188562,-0.0036 0.646126,-0.0052 1.016808,-0.0036 l 0.6739672,0.0029 0.1011502,-0.161831 0.1011503,-0.161832 0.050336,-0.03435 0.050336,-0.03436 0.037247,-0.196073 c 0.020486,-0.10784 0.04232,-0.214827 0.048522,-0.237748 l 0.011275,-0.04167 0.057615,-0.0011 0.057615,-0.0011 7.903e-4,0.30207 c 4.276e-4,0.166139 -0.00225,0.448801 -0.00594,0.628139 z"
       id="path7385" /><path
       style="fill:#000000;stroke-width:0.0236887"
       d="m -8.9513434,4.9657874 -0.00281,0.2558087 -0.036043,0.014615 -0.036045,0.014617 -0.022363,-0.021538 c -0.0123,-0.011845 -0.041711,-0.1166606 -0.065359,-0.2329222 l -0.042997,-0.2113846 -0.066509,-0.073592 C -9.2600494,4.6709183 -9.3261688,4.579803 -9.3704016,4.5089148 l -0.080422,-0.1288897 -0.2624086,-0.0085 c -0.144324,-0.00467 -0.6008758,-0.00609 -1.0145578,-0.00314 l -0.752151,0.00536 0.0032,0.1712109 0.0032,0.1712108 -0.03497,0.030154 -0.03497,0.030154 -0.0027,-0.020622 c -0.0015,-0.01134 -0.0049,-0.1851077 -0.0077,-0.3861469 l -0.005,-0.36553 0.02497,-0.025779 0.02497,-0.025781 0.549418,-0.00602 c 0.302179,-0.00331 0.877403,0.0011 1.2782737,0.0098 l 0.7288554,0.015825 0.00191,0.3688749 c 0.00104,0.2028844 6.461e-4,0.4839896 -9.012e-4,0.6246838 z"
       id="path7383" /><path
       style="fill:#000000;stroke-width:0.0236887"
       d="m -3.1313855,6.4059934 -0.029183,0.023053 -3.292359,0.00685 -3.292359,0.00685 -0.02707,0.030112 -0.02707,0.030111 0.010852,3.9879056 0.010853,3.987908 0.014458,0.01393 0.014459,0.01392 3.3091278,-0.0076 3.3091279,-0.0076 0.019549,0.01883 0.01955,0.01883 0.00767,0.122881 0.00767,0.122879 -0.022505,0.02128 -0.022504,0.02128 -4.1558523,0.0093 -4.1558519,0.0093 -0.01891,0.03108 -0.01891,0.03108 0.0022,0.134796 0.0022,0.134795 -0.02341,0.01508 -0.02341,0.01508 -0.0054,-0.149377 c -0.01673,-0.46179 -0.01823,-0.597929 -0.01182,-1.073281 0.0039,-0.286757 0.0055,-0.905173 0.0035,-1.374257 -0.0033,-0.807872 -0.0047,-1.381693 -0.0073,-2.9140949 -0.0018,-1.1017703 -0.0069,-2.3491104 -0.01287,-3.1587709 -0.0031,-0.4212567 -2.18e-4,-0.7715541 0.0064,-0.7784386 0.0066,-0.00689 0.02355,-0.00571 0.03761,0.00262 l 0.02555,0.015135 0.0033,0.1762371 c 0.0018,0.096931 0.006,0.1764068 0.0092,0.1766156 0.0033,2.014e-4 1.8742747,-0.0037 4.1578071,-0.00868 l 4.1518776,-0.00905 0.024101,0.014276 0.024103,0.014276 0.00237,0.1259686 0.00237,0.1259663 z"
       id="path7381" /><path
       id="rect7633"
       style="opacity:0.523248;fill:#ffff00;stroke:none;stroke-width:0.132292;stroke-linecap:round;stroke-linejoin:round"
       inkscape:label="workarea"
       d="M 0,21.166666 V 0 h 15.875 v 21.166666 z" /></g></svg>
